<svg width="400" height="400" viewBox="0 0 400 400" fill="none" xmlns="http://www.w3.org/2000/svg">
<mask id="mask0_70_206" style="mask-type:luminance" maskUnits="userSpaceOnUse" x="0" y="0" width="400" height="400">
<path d="M400 0H0V400H400V0Z" fill="white"/>
<path d="M213 112.5C212.167 112.5 210.3 112.9 209.5 114.5C208.5 116.5 207.5 119.5 208 120C208.5 120.5 211 121.5 212 122C213 122.5 217.5 122.5 218 122C218.5 121.5 219 119.5 219 118.5C219 117.7 218.333 115.5 218 114.5L215.5 112.5H214M211 128L206 137L208 142L212 144.5C213.333 144.5 216.1 144.5 216.5 144.5C216.9 144.5 219 142.167 220 141L220.5 136L218 131L215.5 128L213 127L211 128Z" stroke="white"/>
</mask>
<g mask="url(#mask0_70_206)">
<path d="M104.977 138.4C104.96 141.013 104.945 143.624 104.958 146.237L104.975 148.654C104.885 155.865 106.365 161.505 111.294 166.974L113.134 168.457L115.005 170.001L116.406 171.094C114.773 172.256 113.288 173.43 111.862 174.842L110.497 176.367C107.382 179.781 105.658 183.353 105.178 187.921L105.181 190.899C105.173 192.658 105.168 194.416 105.178 196.174C105.186 197.459 105.189 198.745 105.189 200.03C105.182 203.536 105.184 207.042 105.196 210.549C105.21 214.274 105.215 218.001 105.216 221.727C105.217 227.966 105.225 234.204 105.242 240.443C105.264 248.514 105.278 256.586 105.281 264.657C105.284 271.65 105.292 278.642 105.303 285.635C105.306 287.87 105.309 290.105 105.312 292.339C105.315 295.917 105.32 299.494 105.33 303.07C105.335 304.386 105.339 305.701 105.342 307.017C105.343 308.853 105.345 310.691 105.351 312.528L105.358 314.185C105.363 315.967 105.391 317.75 105.468 319.531C107.022 324.194 106.846 325.631 110.497 328.849C111.242 329.134 115.402 332.779 126.952 333.594C138.503 334.408 161.007 334.403 161.718 334.766C188.546 334.766 256.64 334.766 282.812 333.594C286.39 332.506 288.877 331.417 291.573 328.849C297.164 322.817 297.429 315.969 297.351 308.174C297.337 306.885 297.33 305.598 297.33 304.31C297.34 300.788 297.335 297.267 297.311 293.746C297.286 290.007 297.277 286.269 297.273 282.53C297.27 276.267 297.255 270.003 297.224 263.74C297.18 254.836 297.154 245.933 297.141 237.029C297.132 230.812 297.117 224.595 297.101 218.377L297.088 213.895C297.077 209.557 297.065 205.219 297.045 200.881C297.037 199.563 297.031 198.243 297.025 196.924C297.02 195.081 297.016 193.239 297.005 191.397L296.995 189.735C296.987 187.948 296.955 186.16 296.874 184.375C295.017 178.803 291.955 175.228 287.166 171.899L285.937 171.094C287.57 169.931 289.054 168.757 290.481 167.346L291.845 165.82C295.94 161.333 297.134 157.056 297.209 151.132L297.202 148.86C297.223 146.31 297.24 143.761 297.241 141.21C297.241 139.385 297.243 137.56 297.248 135.735C297.262 131.92 297.272 128.105 297.27 124.289C297.263 119.34 297.266 114.391 297.298 109.442C297.323 105.576 297.337 101.71 297.338 97.844C297.337 95.9941 297.337 94.1442 297.338 92.2942C297.359 89.6488 297.377 87.0043 297.368 84.3588L297.355 81.9112C297.452 74.9924 296.23 69.4211 291.607 64.041C284.062 56.8738 275.873 56.5787 266.008 56.6376C264.527 56.6471 263.046 56.6508 261.566 56.6491C257.52 56.6378 253.476 56.6378 249.43 56.653C245.132 56.6696 240.834 56.674 236.535 56.6736C229.333 56.6726 222.13 56.681 214.928 56.7014C206.547 56.7261 198.166 56.7426 189.784 56.7416C180.784 56.7404 171.784 56.7468 162.784 56.7612C160.205 56.7654 157.627 56.7687 155.049 56.7698C150.924 56.7708 146.8 56.7745 142.676 56.7883C141.156 56.7942 139.636 56.7995 138.117 56.8042C136.001 56.8029 133.885 56.8017 131.769 56.8115L129.85 56.8223C122.434 56.7916 117.546 58.8236 111.718 63.2812C107.062 67.9371 105.128 73.794 105.036 80.2621L105.051 82.4949C105.03 85.0167 105.014 87.5378 105.018 90.0599C105.023 91.8617 105.024 93.6635 105.02 95.4654C105.008 99.2381 105.001 103.011 105.009 106.784C105.024 111.672 105.028 116.559 105.002 121.447C104.98 125.269 104.969 129.092 104.971 132.914C104.974 134.743 104.976 136.571 104.977 138.4Z" fill="#04394A"/>
<path d="M132.032 182.813C132.034 183.505 132.037 184.198 132.04 184.911C132.07 191.452 132.114 197.992 132.175 204.532C132.206 207.894 132.231 211.255 132.243 214.617C132.255 217.865 132.282 221.111 132.319 224.358C132.331 225.595 132.337 226.831 132.338 228.067C132.34 229.805 132.361 231.541 132.386 233.278C132.393 234.265 132.4 235.252 132.407 236.27C132.961 240.084 134.361 243.209 137.39 245.749C141.761 247.781 145.477 248.698 150.138 247.058C153.133 245.678 155.401 244.379 157.032 241.406C157.939 238.683 157.938 236.507 157.973 233.633C157.981 233.084 157.989 232.535 157.997 231.969C158.021 230.156 158.041 228.343 158.06 226.529C158.076 225.271 158.092 224.013 158.109 222.756C158.152 219.446 158.191 216.136 158.229 212.826C158.268 209.449 158.311 206.071 158.355 202.693C158.439 196.066 158.518 189.44 158.594 182.813C173.894 182.74 189.194 182.685 204.495 182.651C211.599 182.635 218.703 182.613 225.808 182.577C232 182.546 238.192 182.526 244.384 182.519C247.663 182.515 250.941 182.505 254.22 182.482C257.307 182.461 260.394 182.454 263.48 182.459C264.612 182.458 265.745 182.452 266.876 182.44C268.424 182.425 269.973 182.43 271.52 182.437C272.819 182.433 272.819 182.433 274.144 182.428C277.241 182.92 278.857 183.922 281.25 185.938C283.429 189.274 283.887 191.869 283.891 195.814C283.895 196.315 283.899 196.817 283.903 197.334C283.912 199.003 283.905 200.673 283.898 202.342C283.901 203.544 283.905 204.745 283.91 205.947C283.92 209.203 283.916 212.458 283.909 215.714C283.903 219.124 283.909 222.535 283.913 225.945C283.916 231.672 283.911 237.399 283.9 243.126C283.887 249.742 283.891 256.359 283.904 262.976C283.915 268.662 283.916 274.347 283.91 280.033C283.906 283.427 283.905 286.82 283.913 290.213C283.92 293.405 283.916 296.595 283.902 299.786C283.899 300.955 283.9 302.126 283.905 303.295C283.912 304.895 283.903 306.493 283.891 308.093C283.891 308.987 283.89 309.881 283.889 310.802C283.43 314.659 282.12 317.184 279.248 319.776C276.062 321.982 273.734 321.989 269.955 321.985C269.347 321.987 268.739 321.99 268.113 321.992C266.065 321.998 264.016 322 261.969 322.001C260.505 322.005 259.041 322.009 257.577 322.012C253.591 322.023 249.605 322.028 245.62 322.031C243.132 322.034 240.644 322.037 238.155 322.041C230.374 322.052 222.594 322.059 214.813 322.062C205.822 322.066 196.832 322.079 187.842 322.102C180.898 322.119 173.955 322.127 167.012 322.127C162.862 322.128 158.712 322.133 154.563 322.147C150.66 322.159 146.756 322.162 142.853 322.155C141.42 322.154 139.987 322.157 138.553 322.165C136.598 322.175 134.643 322.17 132.687 322.162C132.119 322.169 131.551 322.175 130.965 322.181C126.371 322.137 124.081 320.948 120.875 317.759C119.207 315.11 119.139 313.501 119.135 310.382C119.13 309.866 119.125 309.348 119.12 308.816C119.108 307.09 119.117 305.364 119.127 303.638C119.123 302.398 119.117 301.159 119.111 299.919C119.096 296.555 119.102 293.191 119.112 289.827C119.12 286.305 119.112 282.783 119.107 279.261C119.102 273.345 119.109 267.43 119.124 261.515C119.141 254.679 119.136 247.844 119.118 241.008C119.104 235.137 119.102 229.266 119.11 223.394C119.115 219.889 119.116 216.383 119.106 212.878C119.097 209.581 119.103 206.285 119.121 202.988C119.125 201.779 119.124 200.57 119.117 199.362C119.108 197.709 119.119 196.057 119.135 194.405C119.136 193.481 119.137 192.557 119.138 191.605C119.681 188.097 121.218 185.505 124.024 183.301C126.691 182.56 129.267 182.785 132.032 182.813Z" fill="#90BAC8"/>
<path d="M119.134 202.698C119.12 205.922 119.116 209.146 119.129 212.371C119.142 215.797 119.144 219.223 119.141 222.649C119.137 228.384 119.142 234.119 119.159 239.854C119.18 246.537 119.191 253.219 119.182 259.902C119.173 266.379 119.172 272.857 119.183 279.335L119.183 279.362C119.188 282.098 119.192 284.834 119.19 287.571C119.186 290.861 119.185 294.15 119.199 297.44C119.205 298.648 119.21 299.857 119.215 301.066L119.215 301.09C119.209 302.772 119.204 304.454 119.215 306.136L119.228 307.657C119.233 310.393 119.233 310.393 119.531 312.5L121.874 314.063C126.511 315.347 130.59 314.737 135.113 313.327L137.499 312.5C151.591 307.678 163.82 299.813 175.61 290.823C176.708 289.976 177.807 289.129 178.906 288.282C194.924 276.289 208.323 260.643 219.998 244.489L221.093 242.969C225.588 236.805 229.438 230.433 233.029 223.697L234.423 221.045L235.78 218.48L237.038 216.037C238.28 212.891 238.28 212.891 238.671 212.109C240.234 208.594 244.921 198.047 246.093 194.531L248.437 182.813H158.593L158.251 210.791C158.204 214.923 158.157 219.054 158.103 223.185C158.088 224.3 158.073 225.414 158.059 226.529C158.04 228.334 158.021 230.138 157.996 231.943L157.972 233.633C157.937 236.507 157.938 238.683 157.031 241.406C155.4 244.379 153.132 245.678 150.137 247.058C145.476 248.698 141.76 247.781 137.389 245.749C134.36 243.209 132.96 240.084 132.406 236.269L132.385 233.278C132.36 231.541 132.339 229.805 132.337 228.067C132.336 226.831 132.33 225.595 132.318 224.358C132.281 221.111 132.254 217.865 132.242 214.617C132.23 211.255 132.205 207.893 132.174 204.532C132.113 197.992 132.069 191.452 132.039 184.911L132.031 182.813C131.555 182.808 131.086 182.797 130.62 182.787C128.378 182.736 126.231 182.687 124.023 183.301C121.238 185.489 119.684 188.08 119.14 191.563L119.139 194.302C119.125 195.919 119.116 197.534 119.127 199.151C119.135 200.334 119.137 201.516 119.134 202.698Z" fill="#FCF3ED"/>
<path d="M133.123 70.2188C133.633 70.2181 134.142 70.2175 134.667 70.2168C136.376 70.2155 138.085 70.2198 139.795 70.2241C141.019 70.2243 142.243 70.2242 143.467 70.2237C146.794 70.2235 150.12 70.2281 153.447 70.2335C156.922 70.2384 160.397 70.2389 163.872 70.2398C170.455 70.2422 177.037 70.2487 183.619 70.2565C191.113 70.2652 198.605 70.2695 206.098 70.2734C221.514 70.2816 236.929 70.2954 252.345 70.3128C252.857 72.0471 253.365 73.7828 253.87 75.5191C254.154 76.4855 254.437 77.4519 254.729 78.4476C255.605 81.7605 256.016 84.8698 256.251 88.2815C255.836 88.4346 255.421 88.5876 254.994 88.7454C251.034 90.4213 249.026 92.0268 247.364 96.033C246.217 99.8466 246.56 102.349 248.048 106.006C249.45 108.269 250.851 109.2 253.248 110.318C253.81 110.585 254.373 110.852 254.952 111.126C255.38 111.322 255.809 111.517 256.251 111.719C256.273 114.226 256.287 116.732 256.3 119.239C256.306 119.945 256.312 120.65 256.32 121.378C256.322 122.068 256.324 122.757 256.327 123.468C256.331 124.098 256.335 124.728 256.34 125.377C256.237 127.641 255.878 129.805 255.47 132.031C254.606 132.042 254.606 132.042 253.727 132.054C251.116 132.096 248.509 132.161 245.899 132.227C244.994 132.238 244.088 132.249 243.155 132.26C242.284 132.286 241.413 132.311 240.516 132.337C239.714 132.353 238.912 132.369 238.086 132.386C235.402 132.919 234.448 133.774 232.813 135.938C232.498 138.686 232.498 138.686 233.595 141.406C237.976 145.413 241.404 145.91 247.218 145.947C247.938 145.967 248.659 145.987 249.401 146.007C251.164 146.053 252.925 146.081 254.688 146.094C254.71 147.152 254.725 148.21 254.737 149.268C254.746 149.857 254.755 150.446 254.765 151.053C254.672 153.581 254.265 156.089 253.907 158.594C222.454 158.594 191.001 158.594 158.595 158.594C158.399 133.594 158.399 133.594 158.362 125.733C158.339 123.666 158.315 121.599 158.289 119.531C158.289 119.002 158.289 118.472 158.289 117.926C158.281 111.675 158.226 106.841 154.688 101.563C151.217 98.5024 147.813 97.9799 143.253 98.1875C139.557 98.6884 137.413 100.031 134.913 102.735C132.776 105.901 132.702 108.362 132.653 112.103C132.641 112.869 132.641 112.869 132.629 113.651C132.605 115.337 132.585 117.024 132.566 118.711C132.55 119.881 132.534 121.051 132.517 122.221C132.474 125.3 132.435 128.378 132.397 131.457C132.358 134.599 132.315 137.741 132.272 140.883C132.188 147.047 132.108 153.211 132.032 159.375C124.782 158.575 124.782 158.575 121.876 156.25C119.066 152.702 119.194 149.489 119.216 145.162C119.211 144.445 119.206 143.728 119.2 142.989C119.186 140.623 119.189 138.258 119.193 135.892C119.19 134.245 119.186 132.598 119.181 130.95C119.174 127.499 119.176 124.048 119.184 120.597C119.193 116.177 119.177 111.758 119.154 107.339C119.14 103.937 119.14 100.536 119.144 97.1345C119.144 95.5051 119.14 93.8758 119.13 92.2465C119.118 89.9669 119.127 87.6881 119.14 85.4085C119.133 84.7375 119.125 84.0665 119.117 83.3751C119.169 79.1664 119.879 76.7889 122.657 73.4378C125.999 70.5007 128.763 70.2154 133.123 70.2188Z" fill="#FCF3ED"/>
<path d="M252.342 70.3126C255.857 70.2213 259.372 70.1662 262.889 70.1173C264.375 70.0781 264.375 70.0781 265.892 70.038C276.77 69.9247 276.77 69.9247 280.467 73.4376C283.451 77.7919 284.047 80.9051 283.996 86.1224C284.002 86.8244 284.007 87.5263 284.013 88.2495C284.026 90.5563 284.017 92.8624 284.007 95.1692C284.009 96.7791 284.012 98.3891 284.016 99.999C284.02 103.367 284.014 106.735 283.999 110.104C283.981 114.416 283.992 118.729 284.01 123.041C284.022 126.364 284.018 129.686 284.01 133.008C284.008 134.598 284.01 136.188 284.018 137.779C284.026 140.002 284.014 142.224 283.996 144.448C284.003 145.102 284.009 145.756 284.015 146.429C283.955 150.587 283.21 152.944 280.467 156.25C277.416 158.689 275.072 158.873 271.223 158.823C270.213 158.815 269.204 158.808 268.164 158.8C267.105 158.78 266.047 158.761 264.988 158.74C263.915 158.729 262.841 158.718 261.767 158.708C259.146 158.681 256.525 158.639 253.904 158.594C254.162 154.469 254.42 150.344 254.686 146.094C253.102 146.175 253.102 146.175 251.487 146.259C250.079 146.303 248.672 146.345 247.264 146.387C246.571 146.426 245.878 146.465 245.164 146.506C240.383 146.611 237.712 145.707 233.989 142.693C232.811 141.406 232.811 141.406 231.785 138.623C232.034 135.887 232.446 134.7 234.447 132.824C237.885 130.994 242.165 131.651 245.945 131.787C250.658 131.908 250.658 131.908 255.467 132.031C255.725 125.328 255.982 118.625 256.248 111.719C254.701 111.203 253.154 110.688 251.561 110.156C248.142 107.204 246.317 105.076 245.799 100.586C246.16 96.9724 247.117 94.3671 249.217 91.4064C253.045 88.2814 253.045 88.2814 256.248 88.2814C255.923 86.9249 255.923 86.9248 255.592 85.5409C255.306 84.3385 255.02 83.1362 254.734 81.9338C254.592 81.3395 254.449 80.7454 254.303 80.1332C254.164 79.5491 254.026 78.965 253.883 78.3632C253.693 77.5654 253.693 77.5654 253.499 76.7515C253.041 74.6157 252.689 72.4689 252.342 70.3126Z" fill="#75A3B5"/>
<path d="M268.75 182.813C272.642 182.536 275.667 182.389 279.248 184.082C282.091 186.717 283.428 189.235 283.889 193.104C283.89 193.998 283.891 194.893 283.891 195.814C283.895 196.315 283.898 196.817 283.902 197.334C283.912 199.003 283.905 200.673 283.897 202.342C283.9 203.544 283.905 204.745 283.909 205.947C283.92 209.203 283.916 212.458 283.909 215.714C283.902 219.124 283.908 222.535 283.912 225.945C283.916 231.672 283.91 237.399 283.899 243.126C283.887 249.742 283.891 256.359 283.904 262.976C283.914 268.661 283.916 274.347 283.909 280.032C283.906 283.426 283.905 286.82 283.913 290.214C283.92 293.404 283.916 296.595 283.902 299.786C283.898 300.956 283.899 302.125 283.905 303.295C283.911 304.895 283.903 306.493 283.891 308.092C283.891 308.987 283.89 309.881 283.889 310.802C283.43 314.66 282.12 317.184 279.248 319.775C276.082 321.967 273.8 321.984 270.047 321.969C269.15 321.97 269.15 321.97 268.235 321.971C266.221 321.972 264.207 321.968 262.193 321.964C260.753 321.964 259.314 321.964 257.874 321.964C253.957 321.964 250.04 321.96 246.122 321.954C242.032 321.949 237.941 321.949 233.851 321.948C226.101 321.946 218.351 321.939 210.601 321.932C201.78 321.923 192.959 321.918 184.137 321.914C165.987 321.907 147.837 321.892 129.688 321.875C129.688 320.328 129.688 318.781 129.688 317.188C130.744 317.185 130.744 317.185 131.822 317.182C148.957 317.135 166.093 317.077 183.228 317.003C191.514 316.968 199.801 316.938 208.087 316.917C215.31 316.899 222.532 316.873 229.755 316.837C233.579 316.818 237.403 316.803 241.227 316.799C244.827 316.794 248.427 316.778 252.027 316.754C253.348 316.748 254.669 316.745 255.99 316.746C257.795 316.747 259.599 316.735 261.404 316.717C262.413 316.714 263.423 316.71 264.463 316.707C267.434 316.379 269.34 315.623 271.875 314.063C272.971 311.871 272.765 310.051 272.777 307.598C272.78 307.09 272.784 306.582 272.787 306.057C272.798 304.346 272.802 302.634 272.807 300.922C272.813 299.699 272.82 298.474 272.827 297.25C272.847 293.223 272.859 289.196 272.87 285.168C272.874 283.783 272.878 282.397 272.883 281.012C272.899 275.248 272.914 269.485 272.923 263.721C272.935 255.457 272.962 247.194 273.006 238.931C273.036 233.123 273.052 227.315 273.055 221.507C273.059 218.037 273.068 214.567 273.093 211.097C273.116 207.832 273.122 204.567 273.113 201.302C273.113 200.104 273.119 198.907 273.132 197.71C273.489 190.626 273.489 190.626 270.675 184.407C270.04 183.881 269.405 183.355 268.75 182.813Z" fill="#5F8FA5"/>
<path d="M133.092 70.2188C133.598 70.2181 134.104 70.2175 134.626 70.2168C136.324 70.2155 138.023 70.2198 139.721 70.2241C140.938 70.2243 142.154 70.2242 143.371 70.2237C146.676 70.2235 149.982 70.2281 153.287 70.2335C156.741 70.2384 160.194 70.2389 163.647 70.2398C170.188 70.2422 176.729 70.2487 183.27 70.2565C190.716 70.2652 198.162 70.2695 205.607 70.2734C220.926 70.2816 236.244 70.2954 251.562 70.3128C251.562 70.5706 251.562 70.8284 251.562 71.094C237.124 71.094 222.687 71.094 207.812 71.094C208.843 72.3831 209.765 73.4378 210.546 75.0003C210.448 77.5393 210.937 77.7346 210.155 79.6877C207.421 80.8596 204.607 80.5959 201.736 80.6046C201.026 80.6098 200.316 80.6151 199.584 80.6205C198.038 80.6315 196.492 80.6407 194.947 80.6485C192.501 80.6613 190.055 80.6795 187.608 80.6992C180.652 80.7546 173.696 80.8015 166.74 80.8415C162.488 80.8663 158.236 80.8986 153.985 80.9354C152.363 80.948 150.742 80.9576 149.121 80.9643C146.852 80.9737 144.584 80.9926 142.315 81.0136C141.645 81.0141 140.975 81.0144 140.284 81.0149C137.621 81.0116 133.648 81.3185 132.421 81.6408C131.194 81.9633 130.858 81.6408 130.468 83.594C130.37 85.9239 130.322 88.2366 130.307 90.5675C130.296 91.6649 130.296 91.6649 130.284 92.7845C130.259 95.2151 130.24 97.6458 130.221 100.077C130.205 101.757 130.188 103.437 130.171 105.118C130.128 109.55 130.09 113.982 130.052 118.415C130.013 122.934 129.969 127.453 129.926 131.972C129.842 140.846 129.763 149.72 129.687 158.594C125.146 158.119 123.273 157.477 120.312 153.906C118.999 151.281 119.401 148.315 119.392 145.428C119.387 144.711 119.382 143.995 119.376 143.256C119.361 140.878 119.352 138.499 119.344 136.121C119.341 135.309 119.338 134.498 119.335 133.662C119.318 129.366 119.307 125.07 119.3 120.774C119.291 116.336 119.264 111.898 119.233 107.46C119.213 104.049 119.206 100.637 119.203 97.2258C119.2 95.5899 119.19 93.954 119.176 92.3181C119.157 90.027 119.158 87.7368 119.163 85.4457C119.153 84.771 119.143 84.0962 119.133 83.4012C119.169 79.1779 119.863 76.799 122.655 73.4378C125.988 70.5087 128.743 70.2154 133.092 70.2188Z" fill="#FBFDFC"/>
<path d="M132.031 182.813C132.031 200.859 132.031 218.906 132.031 237.5C131.773 237.5 131.515 237.5 131.249 237.5C131.249 219.969 131.249 202.438 131.249 184.375C130.734 184.375 130.218 184.375 129.687 184.375C129.688 185.043 129.688 185.71 129.689 186.398C129.706 202.62 129.719 218.841 129.727 235.062C129.731 242.906 129.737 250.751 129.746 258.595C129.754 265.43 129.759 272.264 129.76 279.099C129.761 282.72 129.764 286.342 129.769 289.963C129.775 293.367 129.776 296.771 129.775 300.175C129.775 301.428 129.777 302.681 129.78 303.935C129.784 305.638 129.783 307.342 129.781 309.045C129.781 310.001 129.782 310.956 129.783 311.941C129.687 314.063 129.687 314.063 128.906 314.844C127.374 314.804 127.374 314.804 125.488 314.6C124.869 314.538 124.251 314.477 123.614 314.413C121.874 314.063 121.874 314.063 119.531 312.5C119.233 310.393 119.233 310.393 119.228 307.658C119.224 307.156 119.219 306.653 119.215 306.136C119.204 304.446 119.209 302.756 119.215 301.066C119.21 299.857 119.205 298.649 119.199 297.44C119.185 294.15 119.186 290.86 119.19 287.57C119.192 284.825 119.188 282.08 119.183 279.335C119.172 272.857 119.173 266.379 119.182 259.902C119.191 253.219 119.18 246.537 119.159 239.854C119.142 234.119 119.137 228.384 119.141 222.649C119.144 219.223 119.142 215.797 119.129 212.371C119.116 209.146 119.12 205.922 119.134 202.698C119.137 201.516 119.135 200.334 119.127 199.151C119.116 197.535 119.125 195.919 119.139 194.302C119.139 193.398 119.139 192.494 119.14 191.563C119.684 188.08 121.238 185.489 124.023 183.301C125.781 182.813 125.781 182.813 132.031 182.813Z" fill="#FAFCFC"/>
<path d="M143.75 110.938C146.513 111.356 146.513 111.356 147.657 112.5C147.734 114.07 147.755 115.643 147.756 117.216C147.758 118.241 147.76 119.267 147.763 120.323C147.761 121.47 147.759 122.617 147.758 123.764C147.759 124.964 147.76 126.163 147.762 127.363C147.765 130.63 147.764 133.897 147.762 137.164C147.76 140.575 147.761 143.986 147.763 147.398C147.764 153.127 147.762 158.857 147.759 164.587C147.754 171.221 147.756 177.855 147.76 184.489C147.763 190.174 147.764 195.859 147.762 201.545C147.761 204.945 147.761 208.345 147.763 211.745C147.765 214.942 147.764 218.138 147.759 221.334C147.758 222.51 147.759 223.686 147.76 224.863C147.762 226.461 147.759 228.06 147.756 229.659C147.756 230.556 147.755 231.453 147.755 232.377C147.657 234.375 147.657 234.375 146.875 235.156C145.574 235.188 144.271 235.19 142.969 235.156C141.887 232.992 142.087 231.242 142.083 228.82C142.08 227.801 142.077 226.781 142.073 225.732C142.074 224.596 142.074 223.461 142.074 222.325C142.072 221.134 142.069 219.944 142.066 218.753C142.06 215.513 142.058 212.274 142.057 209.034C142.057 206.334 142.054 203.633 142.051 200.932C142.044 194.563 142.043 188.194 142.043 181.825C142.044 175.246 142.035 168.666 142.023 162.087C142.013 156.445 142.009 150.803 142.009 145.162C142.009 141.789 142.007 138.416 141.999 135.044C141.991 131.873 141.991 128.703 141.997 125.533C141.998 124.367 141.996 123.201 141.991 122.035C141.985 120.448 141.99 118.861 141.995 117.275C141.994 116.385 141.994 115.496 141.993 114.579C142.188 112.5 142.188 112.5 143.75 110.938Z" fill="#AAD4E0"/>
<path d="M232.029 88.2814C236.215 89.7819 238.637 92.1226 240.623 96.0939C241.045 99.9417 241.048 103.023 239.353 106.543C237.498 110.547 234.788 111.436 230.909 111.991C228.367 112.077 224.436 110.799 222.654 110.156C220.872 109.514 221.24 109.507 219.334 107.813C216.773 104.886 216.92 101.76 216.969 98.0501C217.406 94.1063 219.013 91.9801 221.873 89.4533C225.227 87.8078 228.36 87.7413 232.029 88.2814Z" fill="#04394D"/>
<path d="M241.744 131.013C242.158 131.014 242.571 131.016 242.997 131.018C243.868 131.025 244.738 131.042 245.609 131.067C246.939 131.105 248.377 131.063 249.707 131.067C250.555 131.078 251.473 130.979 252.228 131.067C252.427 131.069 252.589 131.065 252.789 131.067C252.988 131.069 256.796 131.498 257 131.5C259 132 262.898 132.545 264 134C268 136 269.847 144.494 266 147.5C263.49 149.461 260 144.534 258.5 144.059C257.066 144.093 254.705 143.991 253.069 144.059C251.433 144.127 249.627 144.047 248.027 144.059C247.219 144.068 246.401 144.146 245.506 144.059C244.334 144.092 243.108 144.017 241.937 144.025C241.238 144.036 239.22 144.047 238.5 144.059C236.259 143.35 237.07 150.626 230.975 148.665C227.748 145.723 227.341 140.574 228.823 137.877C229.899 131.596 238.436 130.887 241.744 131.013Z" fill="#09394A"/>
<path d="M252.344 70.3126C266.275 69.8285 266.275 69.8285 271.387 74.2676C273.843 77.1961 273.539 79.8178 273.514 83.4778C273.513 84.0826 273.512 84.6873 273.51 85.3103C273.506 87.2447 273.496 89.179 273.486 91.1134C273.482 92.4235 273.479 93.7338 273.476 95.044C273.467 98.2585 273.454 101.473 273.438 104.688C272.406 104.43 271.375 104.172 270.312 103.906C270.254 103.349 270.196 102.793 270.135 102.219C269.517 97.7103 268.783 94.2039 265.57 90.8631C262.755 88.9597 259.576 88.6034 256.25 88.2813C255.744 86.1659 255.239 84.0499 254.736 81.9337C254.594 81.3395 254.451 80.7453 254.305 80.1331C253.531 76.8717 252.847 73.6293 252.344 70.3126Z" fill="#90BAC8"/>
<path d="M105.062 80.3058L105.089 82.5571C105.08 85.0982 105.075 87.6384 105.091 90.1795C105.103 91.9923 105.11 93.805 105.111 95.6178C105.111 99.4074 105.114 103.197 105.131 106.986C105.158 111.905 105.179 116.823 105.179 121.742C105.178 125.588 105.181 129.433 105.19 133.279C105.196 135.114 105.201 136.948 105.206 138.782C105.208 141.416 105.211 144.049 105.226 146.682L105.242 149.098C105.24 151.192 105.254 153.281 105.321 155.374C105.627 158.804 106.796 161.054 109.375 163.281C108.012 159.353 107.618 155.878 107.568 151.728L107.563 149.374C107.538 146.738 107.516 144.101 107.503 141.464C107.493 139.582 107.482 137.7 107.467 135.819C107.426 130.885 107.39 125.951 107.361 121.018C107.331 115.906 107.295 110.794 107.256 105.682C107.213 100.064 107.274 95.6663 107.335 91.2436C107.395 87.0006 107.454 82.7342 107.422 77.3439C108.641 73.3517 109.422 71.3986 109.766 71.4845C111.589 68.0992 112.5 66.4065 112.5 66.4065C115.026 64.146 116.719 62.8439 117.578 62.5002C120.703 60.9377 125.976 58.4129 129.664 58.385L131.399 58.3955C133.385 58.3878 135.37 58.3824 137.355 58.3867C138.808 58.3901 140.261 58.3907 141.714 58.3886C145.676 58.3796 149.638 58.3765 153.601 58.381C157.816 58.3862 162.031 58.3858 166.246 58.3834C173.307 58.3793 180.369 58.3803 187.43 58.3874C195.648 58.396 203.866 58.3988 212.084 58.3903C219.196 58.3828 226.308 58.3791 233.42 58.3819C234.005 58.3823 234.591 58.3826 235.177 58.383C238.827 58.3852 242.477 58.3875 246.127 58.3841C250.171 58.3791 254.214 58.3764 258.257 58.3835C259.75 58.3869 261.243 58.3897 262.736 58.3918C264.809 58.3869 266.883 58.382 268.955 58.3882L270.845 58.3955C275.372 58.3679 279.226 58.9212 283.594 60.1565L292.969 65.6252C292.006 64.3823 291.355 63.601 291.016 63.2815C284.211 56.7285 283.527 56.5332 266.009 56.6379C264.528 56.6474 263.047 56.651 261.566 56.6494C257.521 56.6381 253.477 56.6381 249.431 56.6533C245.133 56.6699 240.834 56.6743 236.535 56.6739C229.334 56.6729 222.131 56.6812 214.929 56.7017C206.548 56.7264 198.166 56.7429 189.785 56.7419C180.785 56.7407 171.785 56.7471 162.784 56.7615C160.206 56.7657 157.628 56.769 155.049 56.7701C150.925 56.7711 146.801 56.7748 142.676 56.7886C141.157 56.7945 139.637 56.7998 138.117 56.8045C136.001 56.8032 133.886 56.8019 131.77 56.8118L129.851 56.8225C122.435 56.7919 117.547 58.8239 111.719 63.2815C107.042 67.9577 105.123 73.8105 105.062 80.3058Z" fill="#212E2E"/>
<path d="M158.594 182.813C159.625 182.813 160.656 182.813 161.719 182.813C161.773 190.141 161.815 197.468 161.84 204.797C161.852 208.2 161.869 211.603 161.896 215.006C161.921 218.294 161.935 221.581 161.941 224.869C161.945 226.119 161.954 227.37 161.967 228.621C162.106 242.884 162.106 242.884 157.861 247.873C157.33 248.301 156.798 248.729 156.25 249.17C155.718 249.612 155.187 250.054 154.639 250.51C151.614 252.613 148.899 252.638 145.312 252.344C141.912 251.083 139.195 249.542 136.719 246.875C136.719 246.68 136.912 245.707 137.109 245.313C137.754 245.699 138.789 246.086 139.453 246.484C143.209 248.094 146.313 248.397 150.143 247.061C153.133 245.674 155.402 244.378 157.031 241.406C157.939 238.683 157.938 236.507 157.973 233.633C157.985 232.809 157.985 232.809 157.996 231.969C158.021 230.156 158.04 228.343 158.06 226.529C158.076 225.271 158.092 224.013 158.109 222.756C158.152 219.446 158.191 216.136 158.228 212.826C158.268 209.449 158.311 206.071 158.354 202.693C158.438 196.066 158.517 189.44 158.594 182.813Z" fill="#FFB68E"/>
<path d="M158.594 110.938C161.719 114.063 161.719 114.063 162.095 116.129C162.088 116.913 162.081 117.697 162.074 118.505C162.073 119.397 162.073 120.288 162.073 121.206C162.057 122.164 162.041 123.122 162.024 124.109C162.02 125.093 162.015 126.077 162.011 127.091C161.996 129.701 161.968 132.31 161.933 134.92C161.901 137.586 161.887 140.251 161.871 142.917C161.837 148.143 161.785 153.368 161.719 158.594C160.687 158.594 159.656 158.594 158.594 158.594C158.594 142.867 158.594 127.141 158.594 110.938Z" fill="#FFB68E"/>
<path d="M228.516 96.8751C230.469 97.0704 230.859 97.2657 232.031 98.8282C232.031 99.6095 232.031 100.13 232.031 100.391C232.031 100.733 232.031 101.367 231.641 102.344C230.867 102.602 230.484 103.055 229.688 103.32C229.688 103.578 229.529 103.592 229.37 103.608C229.211 103.623 229.053 103.641 229.053 103.906C228.279 104.164 228.125 104.688 227.734 105.859C227.734 108.008 227.734 108.008 228.516 108.594C229.688 109.57 230.342 109.474 231.25 109.766C231.704 109.912 232.213 110.047 232.812 110.156C233.412 110.265 234.102 110.348 234.766 110.547C232.82 112.492 231.739 112.146 229.053 112.158C225.781 112.097 223.675 111.735 221.094 109.57C220.836 109.055 219.797 108.539 219.531 108.008C222.656 108.594 222.266 108.594 224.219 108.008C226.172 106.641 226.39 105.469 226.562 103.906C226.735 102.344 225.391 101.953 225.391 99.6095C226.172 97.6564 226.562 97.0704 228.516 96.8751Z" fill="#708F98"/>
<path d="M238.672 144.922C245.375 144.922 252.078 144.922 258.984 144.922C258.211 149.563 256.266 153.813 255.469 158.594C254.953 158.594 254.438 158.594 253.906 158.594C254.164 154.469 254.422 150.344 254.688 146.094C253.578 146.112 252.468 146.13 251.324 146.149C249.874 146.163 248.423 146.178 246.973 146.192C245.874 146.211 245.874 146.211 244.754 146.231C243.704 146.239 243.704 146.239 242.633 146.246C241.987 146.255 241.34 146.263 240.674 146.271C239.062 146.094 240.234 146.484 238.672 144.922Z" fill="#BBAA9C"/>
<path d="M261.174 88.5839C265.359 90.0844 267.782 92.4251 269.767 96.3964C270.19 100.244 270.193 103.326 268.498 106.846C266.642 110.85 263.932 111.739 260.054 112.293C257.511 112.38 253.58 111.102 251.799 110.459C250.017 109.816 250.384 109.809 248.478 108.115C245.918 105.189 246.065 102.062 246.113 98.3525C246.55 94.4088 248.158 92.2826 251.017 89.7558C254.372 88.1103 257.505 88.0438 261.174 88.5839Z" fill="#04394D"/>
<path d="M257.422 96.8751C259.375 97.0704 259.766 97.2657 260.938 98.8282C260.938 99.6095 260.938 100.13 260.938 100.391C260.938 100.733 260.938 101.367 260.547 102.344C259.773 102.602 259.391 103.055 258.594 103.32C258.594 103.578 258.435 103.592 258.276 103.608C258.118 103.623 257.959 103.641 257.959 103.906C257.186 104.164 257.031 104.688 256.641 105.859C256.641 108.008 256.641 108.008 257.422 108.594C258.594 109.57 259.248 109.474 260.156 109.766C260.61 109.912 261.119 110.047 261.719 110.156C262.318 110.265 263.008 110.348 263.672 110.547C261.726 112.492 260.645 112.146 257.959 112.158C254.687 112.097 252.581 111.735 250 109.57C249.742 109.055 248.703 108.539 248.438 108.008C251.562 108.594 251.172 108.594 253.125 108.008C255.078 106.641 255.296 105.469 255.469 103.906C255.641 102.344 254.297 101.953 254.297 99.6095C255.078 97.6564 255.469 97.0704 257.422 96.8751Z" fill="#708F98"/>
<path d="M172.656 328.125H134.375C131.786 328.125 129.688 330.224 129.688 332.813V342.969C129.688 345.558 131.786 347.656 134.375 347.656H172.656C175.245 347.656 177.344 345.558 177.344 342.969V332.813C177.344 330.224 175.245 328.125 172.656 328.125Z" fill="#04394A"/>
<path d="M267.969 328.125H229.688C227.099 328.125 225 330.224 225 332.813V342.969C225 345.558 227.099 347.656 229.688 347.656H267.969C270.558 347.656 272.656 345.558 272.656 342.969V332.813C272.656 330.224 270.558 328.125 267.969 328.125Z" fill="#04394A"/>
</g>
<path d="M213.495 113.5L214.789 112.278L217.5 113L218.5 114L220 116V118.304L219.5 121.5L218.5 123.5L214 124.5L211 123L210 121V118L211.495 115.5L213.495 113.5Z" fill="#B9D2D8"/>
<path d="M206.895 129.217L209.789 128L212.684 128.609L213.842 129.826L215 132.87V135.304V138.348L213.263 140.783L209.789 142L205.158 140.783L204 138.957V135.304L205.158 132.261L206.895 129.217Z" fill="#B9D2D8"/>
<path d="M213 113.5L214.5 112.5L216.5 113L218.5 115L219.5 117V118.5L219 122.5L216.5 124L214 124.5L211.5 123L210.5 120.5L210 118L211 115.5L213 113.5Z" fill="#36A3BB"/>
<path d="M206.5 130L209 128.5L212 129L214 131L214.5 134V135.5L214 139.5L211.5 141L209 141.5L205.5 140.5L204 138V135L205 132.5L206.5 130Z" fill="#36A3BB"/>
</svg>
