<svg width="150" height="150" viewBox="0 0 150 150" fill="none" xmlns="http://www.w3.org/2000/svg">
<g clip-path="url(#clip0_41_939)">
<mask id="mask0_41_939" style="mask-type:luminance" maskUnits="userSpaceOnUse" x="0" y="0" width="150" height="150">
<path d="M150 0H0V150H150V0Z" fill="white"/>
</mask>
<g mask="url(#mask0_41_939)">
<path d="M39.3682 51.8994C39.362 52.8791 39.3563 53.8585 39.3612 54.8382L39.3676 55.7446C39.334 58.4487 39.889 60.5637 41.7372 62.6145L42.4273 63.1708L43.1288 63.7497L43.6541 64.1596C43.0417 64.5955 42.485 65.0356 41.95 65.565L41.4385 66.1371C40.2703 67.4171 39.6236 68.7566 39.4435 70.4698L39.4448 71.5866C39.4418 72.2461 39.4401 72.9053 39.4438 73.5645C39.4467 74.0464 39.4479 74.5286 39.4477 75.0106C39.4452 76.3254 39.4458 77.6402 39.4506 78.9551C39.4558 80.3523 39.4576 81.7497 39.4579 83.1469C39.4583 85.4865 39.4612 87.8259 39.4676 90.1655C39.4761 93.1922 39.4812 96.2191 39.4825 99.2458C39.4836 101.868 39.4865 104.49 39.4905 107.112C39.4918 107.951 39.493 108.789 39.4938 109.627C39.4951 110.968 39.497 112.31 39.5009 113.651C39.5025 114.144 39.5039 114.637 39.5053 115.131C39.5057 115.819 39.5062 116.508 39.5087 117.197L39.5113 117.819C39.5129 118.487 39.5236 119.156 39.5525 119.824C40.1353 121.572 40.0691 122.111 41.4385 123.318C41.7177 123.425 43.2778 124.792 47.6091 125.097C51.9405 125.402 60.3798 125.4 60.6462 125.537C70.7067 125.537 96.2419 125.537 106.056 125.097C107.398 124.689 108.331 124.281 109.342 123.318C111.438 121.056 111.538 118.488 111.508 115.564C111.503 115.081 111.501 114.599 111.501 114.115C111.504 112.795 111.503 111.475 111.494 110.154C111.484 108.752 111.481 107.35 111.479 105.948C111.478 103.599 111.472 101.251 111.461 98.9019C111.444 95.5629 111.435 92.2242 111.43 88.8853C111.426 86.5538 111.421 84.2224 111.415 81.8906L111.41 80.2099C111.406 78.5833 111.401 76.9565 111.394 75.3299C111.391 74.8354 111.389 74.3405 111.386 73.8457C111.385 73.1549 111.383 72.4641 111.379 71.7733L111.375 71.1501C111.372 70.4798 111.36 69.8095 111.33 69.1401C110.633 67.0503 109.485 65.7097 107.689 64.4616L107.228 64.1596C107.841 63.7234 108.397 63.2833 108.932 62.7542L109.444 62.1821C110.979 60.4992 111.427 58.8952 111.455 56.674L111.453 55.822C111.461 54.8657 111.467 53.9098 111.467 52.9532C111.467 52.2689 111.468 51.5845 111.47 50.9001C111.475 49.4694 111.479 48.0386 111.478 46.6077C111.476 44.7517 111.477 42.8959 111.489 41.0399C111.498 39.5902 111.503 38.1406 111.504 36.6909C111.503 35.9972 111.503 35.3034 111.504 34.6097C111.511 33.6177 111.518 32.626 111.515 31.6339L111.51 30.7161C111.546 28.1215 111.088 26.0323 109.355 24.0147C106.525 21.327 103.454 21.2164 99.7549 21.2385C99.1997 21.242 98.6442 21.2434 98.0891 21.2428C96.5721 21.2385 95.0554 21.2386 93.5384 21.2443C91.9265 21.2505 90.3145 21.2521 88.7026 21.252C86.0018 21.2516 83.3009 21.2547 80.6 21.2624C77.457 21.2717 74.3141 21.2778 71.1711 21.2775C67.7961 21.277 64.421 21.2794 61.0459 21.2848C60.079 21.2864 59.1121 21.2876 58.1451 21.2881C56.5985 21.2884 55.052 21.2898 53.5053 21.295C52.9355 21.2972 52.3655 21.2992 51.7957 21.301C51.0022 21.3005 50.2089 21.3 49.4155 21.3037L48.6958 21.3077C45.9148 21.2962 44.0819 22.0582 41.8962 23.7298C40.1503 25.4758 39.4251 27.6721 39.3904 30.0977L39.3962 30.9349C39.3882 31.8806 39.3822 32.8261 39.3838 33.7718C39.3857 34.4475 39.3858 35.1232 39.3843 35.7989C39.3799 37.2137 39.3772 38.6284 39.3803 40.0432C39.3858 41.8762 39.3876 43.7089 39.3776 45.5419C39.3696 46.9754 39.3653 48.4087 39.3661 49.8422C39.3673 50.528 39.368 51.2136 39.3682 51.8994Z" fill="#04394A"/>
<path d="M49.5167 68.5546C49.5178 68.8143 49.5189 69.074 49.52 69.3416C49.5311 71.7942 49.5477 74.2467 49.5706 76.6992C49.5822 77.9599 49.5916 79.2206 49.5961 80.4814C49.6006 81.6991 49.6107 82.9167 49.6246 84.1343C49.629 84.5979 49.6313 85.0615 49.6315 85.525C49.6322 86.1766 49.6402 86.8277 49.6498 87.4792C49.6524 87.8494 49.655 88.2195 49.6576 88.6009C49.8653 90.0313 50.3901 91.2034 51.5263 92.1558C53.1653 92.9177 54.5589 93.2617 56.3065 92.6467C57.4296 92.1293 58.2804 91.6419 58.8917 90.5273C59.2321 89.506 59.2317 88.69 59.2448 87.6122C59.2477 87.4063 59.2506 87.2005 59.2536 86.9884C59.2629 86.3084 59.2701 85.6283 59.2774 84.9482C59.2834 84.4766 59.2896 84.0049 59.2958 83.5332C59.312 82.2921 59.3265 81.0509 59.3406 79.8097C59.3553 78.5431 59.3717 77.2765 59.3878 76.0099C59.4193 73.5248 59.4491 71.0397 59.4777 68.5546C65.2152 68.5272 70.9528 68.5066 76.6903 68.4939C79.3546 68.4878 82.0186 68.4796 84.6828 68.4662C87.0049 68.4545 89.327 68.4469 91.649 68.4443C92.8786 68.4428 94.1079 68.4392 95.3372 68.4307C96.495 68.4227 97.6525 68.4203 98.8101 68.4221C99.2346 68.4217 99.6591 68.4194 100.083 68.4149C100.664 68.4091 101.245 68.4112 101.825 68.4137C102.312 68.4121 102.312 68.4121 102.809 68.4104C103.97 68.595 104.576 68.9706 105.474 69.7265C106.291 70.9775 106.463 71.9509 106.464 73.43C106.466 73.6181 106.467 73.8062 106.469 74C106.472 74.6261 106.469 75.2521 106.467 75.8782C106.468 76.3288 106.469 76.7794 106.471 77.2299C106.475 78.4509 106.474 79.6717 106.471 80.8926C106.469 82.1715 106.471 83.4504 106.472 84.7293C106.474 86.8769 106.471 89.0244 106.467 91.172C106.462 93.6533 106.464 96.1345 106.469 98.6158C106.473 100.748 106.474 102.88 106.471 105.012C106.47 106.285 106.469 107.557 106.472 108.83C106.475 110.027 106.473 111.223 106.468 112.42C106.467 112.858 106.467 113.297 106.469 113.736C106.472 114.335 106.469 114.935 106.464 115.535C106.464 115.87 106.464 116.205 106.463 116.551C106.291 117.997 105.8 118.944 104.723 119.916C103.528 120.743 102.655 120.746 101.238 120.744C101.01 120.745 100.782 120.746 100.547 120.747C99.7792 120.749 99.011 120.75 98.2432 120.75C97.6941 120.752 97.1451 120.753 96.5961 120.755C95.1014 120.759 93.6069 120.76 92.1125 120.762C91.1794 120.762 90.2463 120.764 89.3132 120.765C86.3952 120.769 83.4775 120.772 80.5596 120.773C77.1881 120.774 73.8169 120.779 70.4455 120.788C67.8418 120.794 65.238 120.797 62.6342 120.798C61.0781 120.798 59.522 120.8 57.9659 120.805C56.5022 120.81 55.0385 120.811 53.5748 120.808C53.0373 120.808 52.4998 120.809 51.9624 120.812C51.229 120.815 50.4959 120.814 49.7625 120.811C49.5494 120.813 49.3364 120.815 49.1169 120.818C47.3939 120.801 46.5353 120.355 45.3329 119.16C44.7076 118.166 44.6819 117.563 44.6804 116.393C44.6786 116.199 44.6768 116.006 44.6749 115.806C44.6702 115.159 44.6739 114.511 44.6776 113.864C44.676 113.399 44.6739 112.934 44.6714 112.469C44.666 111.208 44.6681 109.946 44.6718 108.685C44.6748 107.364 44.672 106.043 44.6702 104.723C44.6681 102.504 44.6709 100.286 44.6764 98.0679C44.6828 95.5045 44.6808 92.9412 44.6743 90.3779C44.669 88.1762 44.6682 85.9745 44.6713 83.7727C44.6731 82.4581 44.6734 81.1436 44.6695 79.829C44.6661 78.5927 44.6685 77.3566 44.6752 76.1203C44.6768 75.667 44.6763 75.2137 44.6738 74.7605C44.6705 74.1407 44.6746 73.5214 44.6804 72.9017C44.6809 72.5552 44.6813 72.2087 44.6818 71.8518C44.8852 70.5364 45.4618 69.5643 46.5138 68.7377C47.514 68.4599 48.4801 68.5441 49.5167 68.5546Z" fill="#90BAC8"/>
<path d="M44.6768 76.0114C44.6713 77.2204 44.6701 78.4294 44.6747 79.6385C44.6797 80.9233 44.6804 82.2081 44.6794 83.4929C44.6777 85.6436 44.6797 87.7943 44.6861 89.945C44.694 92.4509 44.6981 94.9567 44.6948 97.4626C44.6914 99.8918 44.691 102.321 44.6951 104.75L44.6951 104.76C44.6969 105.786 44.6986 106.812 44.6977 107.839C44.6961 109.072 44.6957 110.306 44.701 111.539C44.7034 111.993 44.7054 112.446 44.7071 112.899L44.707 112.908C44.705 113.539 44.7029 114.17 44.7071 114.801L44.7119 115.371C44.714 116.397 44.714 116.397 44.8254 117.187L45.7043 117.773C47.4431 118.255 48.9725 118.026 50.6688 117.497L51.5637 117.187C56.8481 115.379 61.434 112.429 65.8551 109.058C66.2671 108.741 66.6791 108.423 67.0911 108.105C73.0979 103.608 78.1227 97.7407 82.5009 91.6828L82.9113 91.1129C84.5971 88.8015 86.0408 86.412 87.3873 83.8859L87.9103 82.8914L88.4188 81.9296L88.8908 81.0134C89.3566 79.8336 89.3566 79.8336 89.5031 79.5406C90.0891 78.2222 91.8469 74.2672 92.2863 72.9488L93.1652 68.5543H59.4739L59.3457 79.0462C59.3278 80.5955 59.3102 82.1448 59.2902 83.6941C59.2845 84.112 59.279 84.53 59.2736 84.9479C59.2664 85.6246 59.2592 86.3013 59.25 86.978L59.2411 87.6119C59.2279 88.6897 59.2283 89.5057 58.8879 90.5269C58.2766 91.6416 57.4258 92.129 56.3027 92.6464C54.5551 93.2614 53.1615 92.9173 51.5225 92.1554C50.3863 91.2031 49.8615 90.0309 49.6539 88.6006L49.646 87.4789C49.6364 86.8274 49.6284 86.1763 49.6277 85.5247C49.6275 85.0611 49.6252 84.5975 49.6208 84.134C49.6069 82.9163 49.5968 81.6988 49.5923 80.4811C49.5878 79.2203 49.5784 77.9596 49.5668 76.6989C49.544 74.2464 49.5273 71.7939 49.5162 69.3413L49.5129 68.5543C49.3347 68.5525 49.1586 68.5485 48.984 68.5445C48.1431 68.5255 47.3382 68.5073 46.51 68.7374C45.4658 69.5578 44.883 70.5297 44.6788 71.8356L44.6786 72.8628C44.6734 73.4691 44.67 74.075 44.6739 74.6813C44.677 75.1247 44.6779 75.568 44.6768 76.0114Z" fill="#FCF3ED"/>
<path d="M49.9242 26.3313C50.1152 26.331 50.3062 26.3308 50.5029 26.3305C51.1439 26.33 51.785 26.3317 52.426 26.3333C52.885 26.3333 53.3441 26.3333 53.8032 26.3331C55.0506 26.333 56.298 26.3348 57.5455 26.3368C58.8487 26.3386 60.1519 26.3388 61.4551 26.3392C63.9235 26.3401 66.3918 26.3425 68.8602 26.3454C71.6701 26.3487 74.48 26.3503 77.2898 26.3518C83.0707 26.3548 88.8513 26.36 94.6321 26.3665C94.8243 27.0169 95.0147 27.6678 95.2043 28.3189C95.3106 28.6813 95.4167 29.0437 95.5263 29.4171C95.8547 30.6594 96.0088 31.8254 96.097 33.1048C95.9414 33.1622 95.7858 33.2196 95.6256 33.2788C94.1408 33.9072 93.3876 34.5093 92.7645 36.0116C92.3344 37.4417 92.463 38.38 93.0208 39.7515C93.5467 40.6 94.072 40.9492 94.9708 41.3686C95.1817 41.4686 95.3927 41.5686 95.6101 41.6716C95.7706 41.745 95.9314 41.8183 96.097 41.8938C96.1055 42.8338 96.1107 43.7737 96.1154 44.7137C96.1178 44.9784 96.1201 45.2432 96.1227 45.5159C96.1236 45.7746 96.1245 46.0333 96.1257 46.2998C96.1271 46.5361 96.1286 46.7724 96.1304 47.0158C96.092 47.8646 95.9572 48.6761 95.804 49.511C95.4803 49.5152 95.4803 49.5152 95.1504 49.5194C94.1716 49.5351 93.1936 49.5596 92.2151 49.5843C91.8756 49.5884 91.536 49.5926 91.1862 49.5969C90.8596 49.6063 90.5329 49.6158 90.1963 49.6255C89.8957 49.6316 89.5951 49.6378 89.2852 49.6441C88.2788 49.8439 87.9211 50.1646 87.3079 50.9759C87.1898 52.0066 87.1898 52.0066 87.6009 53.0267C89.2438 54.529 90.5294 54.7154 92.7097 54.7295C92.9798 54.7369 93.2499 54.7443 93.5282 54.7519C94.1894 54.769 94.8498 54.7797 95.511 54.7845C95.5192 55.1812 95.5248 55.5779 95.5295 55.9748C95.5327 56.1957 95.5362 56.4166 95.5397 56.6442C95.5049 57.5923 95.3522 58.5327 95.2181 59.4719C83.4231 59.4719 71.6282 59.4719 59.4759 59.4719C59.4026 50.097 59.4026 50.097 59.3886 47.149C59.38 46.3738 59.371 45.5987 59.3614 44.8235C59.3614 44.6248 59.3613 44.4262 59.3612 44.2215C59.3583 41.8774 59.3377 40.0647 58.011 38.0853C56.7093 36.9376 55.4329 36.7417 53.7229 36.8195C52.337 37.0074 51.533 37.511 50.5953 38.5247C49.7938 39.7121 49.7662 40.6352 49.7478 42.0377C49.7434 42.3251 49.7434 42.3251 49.739 42.6182C49.7297 43.2507 49.7225 43.8832 49.7152 44.5157C49.7092 44.9545 49.703 45.3934 49.6968 45.8322C49.6806 46.9866 49.6661 48.1411 49.652 49.2956C49.6373 50.4739 49.621 51.6521 49.6048 52.8304C49.5733 55.1419 49.5436 57.4534 49.5149 59.7649C46.7963 59.4649 46.7963 59.4649 45.7063 58.593C44.6527 57.2627 44.7006 56.0577 44.7091 54.4349C44.7071 54.1661 44.705 53.8972 44.703 53.6202C44.6976 52.733 44.6987 51.846 44.7004 50.9587C44.6991 50.341 44.6975 49.7233 44.6958 49.1056C44.6931 47.8115 44.6939 46.5173 44.6968 45.2232C44.7001 43.5658 44.6942 41.9086 44.6857 40.2512C44.6803 38.9757 44.6804 37.7002 44.682 36.4247C44.6821 35.8137 44.6803 35.2027 44.6767 34.5917C44.6723 33.7368 44.6754 32.8823 44.6805 32.0274C44.6776 31.7758 44.6748 31.5242 44.6719 31.2649C44.6913 29.6866 44.9577 28.7951 45.9993 27.5384C47.2526 26.437 48.289 26.33 49.9242 26.3313Z" fill="#FCF3ED"/>
<path d="M94.6306 26.3667C95.9489 26.3324 97.2671 26.3117 98.5857 26.2934C99.1431 26.2787 99.1431 26.2787 99.7118 26.2637C103.791 26.2212 103.791 26.2212 105.177 27.5385C106.297 29.1714 106.52 30.3388 106.501 32.2953C106.503 32.5586 106.505 32.8218 106.507 33.093C106.512 33.958 106.509 34.8228 106.505 35.6879C106.506 36.2916 106.507 36.8953 106.508 37.499C106.51 38.7621 106.508 40.0252 106.502 41.2882C106.495 42.9056 106.499 44.5226 106.506 46.1399C106.511 47.3858 106.509 48.6316 106.506 49.8775C106.505 50.4738 106.506 51.0701 106.509 51.6664C106.512 52.5002 106.508 53.3335 106.501 54.1673C106.503 54.4125 106.506 54.6577 106.508 54.9104C106.486 56.4694 106.206 57.3533 105.177 58.5931C104.033 59.5078 103.155 59.5769 101.711 59.5579C101.332 59.5552 100.954 59.5523 100.564 59.5494C100.167 59.542 99.77 59.5347 99.373 59.5271C98.9704 59.5227 98.5678 59.5186 98.1651 59.5151C97.1822 59.5048 96.1994 59.489 95.2166 59.472C95.3132 57.9251 95.4099 56.3783 95.5095 54.7846C94.9158 54.8152 94.9159 54.8152 94.3102 54.8464C93.7822 54.8629 93.2543 54.8789 92.7263 54.8945C92.4665 54.9092 92.2067 54.9239 91.939 54.9391C90.146 54.9787 89.1443 54.6396 87.7485 53.5094C87.3064 53.0268 87.3064 53.0268 86.9219 51.9831C87.0151 50.9572 87.1698 50.512 87.92 49.8084C89.2093 49.122 90.8143 49.3684 92.2319 49.4196C93.9994 49.465 93.9994 49.465 95.8025 49.5112C95.8992 46.9975 95.9958 44.4839 96.0955 41.894C95.5154 41.7007 94.9353 41.5073 94.3376 41.3081C93.0556 40.2009 92.3713 39.4029 92.177 37.7192C92.3125 36.3641 92.6712 35.3871 93.4587 34.2768C94.8943 33.1049 94.8943 33.1049 96.0955 33.1049C95.9737 32.5962 95.9737 32.5962 95.8494 32.0773C95.7422 31.6264 95.635 31.1755 95.5278 30.7246C95.4744 30.5017 95.421 30.2789 95.3659 30.0494C95.314 29.8303 95.262 29.6113 95.2086 29.3856C95.1372 29.0864 95.1372 29.0864 95.0644 28.7812C94.8927 27.9803 94.7607 27.1753 94.6306 26.3667Z" fill="#75A3B5"/>
<path d="M100.781 68.5546C102.241 68.4508 103.375 68.3959 104.718 69.0307C105.784 70.0188 106.286 70.9632 106.458 72.4141C106.459 72.7494 106.459 73.0846 106.459 73.4301C106.461 73.6182 106.462 73.8062 106.463 74C106.467 74.6262 106.464 75.2521 106.461 75.8783C106.463 76.3288 106.464 76.7794 106.466 77.23C106.47 78.4509 106.468 79.6717 106.466 80.8926C106.463 82.1715 106.465 83.4505 106.467 84.7294C106.469 86.877 106.466 89.0245 106.462 91.172C106.458 93.6533 106.459 96.1346 106.464 98.6159C106.468 100.748 106.468 102.88 106.466 105.012C106.465 106.285 106.465 107.557 106.467 108.83C106.47 110.026 106.468 111.223 106.463 112.42C106.462 112.858 106.462 113.297 106.464 113.735C106.467 114.335 106.464 114.935 106.459 115.535C106.459 115.87 106.459 116.205 106.458 116.551C106.286 117.997 105.795 118.944 104.718 119.916C103.531 120.738 102.675 120.744 101.268 120.738C100.931 120.739 100.931 120.739 100.588 120.739C99.8329 120.739 99.0776 120.738 98.3224 120.736C97.7824 120.736 97.2428 120.736 96.7028 120.737C95.2339 120.737 93.7649 120.735 92.2957 120.733C90.762 120.731 89.228 120.731 87.694 120.73C84.7878 120.73 81.8815 120.727 78.9753 120.724C75.6674 120.721 72.3594 120.719 69.0515 120.718C62.2453 120.715 55.439 120.71 48.6328 120.703C48.6328 120.123 48.6328 119.543 48.6328 118.945C49.029 118.944 49.029 118.944 49.4332 118.943C55.859 118.926 62.2847 118.904 68.7105 118.876C71.8179 118.863 74.9253 118.852 78.0328 118.844C80.7413 118.837 83.4495 118.827 86.158 118.814C87.5921 118.807 89.0262 118.801 90.4603 118.799C91.8103 118.798 93.1603 118.792 94.5103 118.783C95.0054 118.78 95.5008 118.779 95.9962 118.78C96.6729 118.78 97.3497 118.775 98.0265 118.769C98.405 118.768 98.7838 118.766 99.1737 118.765C100.288 118.642 101.002 118.359 101.953 117.773C102.364 116.951 102.287 116.269 102.291 115.349C102.292 115.159 102.294 114.968 102.295 114.771C102.299 114.13 102.301 113.488 102.303 112.846C102.305 112.387 102.307 111.928 102.31 111.469C102.318 109.959 102.322 108.448 102.326 106.938C102.328 106.419 102.329 105.899 102.331 105.379C102.337 103.218 102.343 101.057 102.346 98.8951C102.351 95.7964 102.361 92.6978 102.377 89.5991C102.388 87.4211 102.394 85.243 102.396 83.0649C102.397 81.7637 102.4 80.4626 102.41 79.1614C102.419 77.9369 102.421 76.7126 102.417 75.4881C102.417 75.0391 102.42 74.5901 102.425 74.1411C102.558 71.4848 102.558 71.4848 101.503 69.1527C101.265 68.9553 101.027 68.758 100.781 68.5546Z" fill="#5F8FA5"/>
<path d="M49.9105 26.3315C50.1003 26.3313 50.2901 26.331 50.4856 26.3308C51.1226 26.3303 51.7595 26.3319 52.3965 26.3335C52.8526 26.3336 53.3088 26.3335 53.765 26.3334C55.0046 26.3333 56.2442 26.335 57.4837 26.3371C58.7787 26.3389 60.0737 26.3391 61.3687 26.3394C63.8215 26.3403 66.2743 26.3427 68.7271 26.3457C71.5193 26.3489 74.3116 26.3505 77.1036 26.352C82.8481 26.3551 88.5924 26.3602 94.3366 26.3668C94.3366 26.4634 94.3366 26.5601 94.3366 26.6597C88.9226 26.6597 83.5085 26.6597 77.9304 26.6597C78.3171 27.1431 78.6628 27.5386 78.9558 28.1246C78.9191 29.0767 79.1022 29.15 78.8093 29.8824C77.7839 30.3218 76.7286 30.223 75.652 30.2262C75.3856 30.2282 75.1193 30.2301 74.8448 30.2322C74.2653 30.2363 73.6856 30.2397 73.106 30.2427C72.1887 30.2475 71.2714 30.2543 70.3541 30.2617C67.7456 30.2825 65.1371 30.3 62.5285 30.315C60.9341 30.3243 59.3397 30.3365 57.7452 30.3502C57.1373 30.355 56.5293 30.3586 55.9213 30.3611C55.0706 30.3646 54.2199 30.3717 53.3692 30.3796C53.1179 30.3797 52.8666 30.3799 52.6076 30.3801C51.609 30.3788 50.119 30.4939 49.6588 30.6148C49.1987 30.7357 49.0729 30.6148 48.9264 31.3472C48.8897 32.2209 48.8719 33.0882 48.8663 33.9623C48.8619 34.3738 48.8619 34.3738 48.8575 34.7937C48.8482 35.7052 48.8409 36.6167 48.8337 37.5282C48.8277 38.1583 48.8215 38.7885 48.8153 39.4186C48.7991 41.0808 48.7846 42.7429 48.7705 44.405C48.7558 46.0997 48.7395 47.7943 48.7233 49.489C48.6917 52.8167 48.662 56.1444 48.6334 59.4722C46.9309 59.2941 46.2283 59.0535 45.1178 57.7144C44.6257 56.73 44.7763 55.6177 44.773 54.535C44.7711 54.2663 44.7691 53.9975 44.7672 53.7207C44.7614 52.8287 44.758 51.9368 44.755 51.0448C44.7538 50.7405 44.7526 50.4362 44.7514 50.1226C44.7453 48.5116 44.7411 46.9007 44.7384 45.2897C44.7351 43.6254 44.725 41.9612 44.7134 40.297C44.7058 39.0177 44.7033 37.7385 44.7023 36.4591C44.7008 35.8457 44.6974 35.2322 44.692 34.6188C44.6849 33.7596 44.6851 32.9008 44.6872 32.0416C44.6834 31.7886 44.6796 31.5356 44.6758 31.2749C44.6894 29.6912 44.9497 28.7991 45.9967 27.5386C47.2466 26.4403 48.2796 26.3302 49.9105 26.3315Z" fill="#FBFDFC"/>
<path d="M49.5129 68.5544C49.5129 75.322 49.5129 82.0896 49.5129 89.0623C49.4163 89.0623 49.3196 89.0623 49.22 89.0623C49.22 82.488 49.22 75.9138 49.22 69.1404C49.0266 69.1404 48.8333 69.1404 48.634 69.1404C48.6343 69.3908 48.6346 69.6411 48.6349 69.8991C48.6413 75.9821 48.6462 82.065 48.6492 88.148C48.6507 91.0896 48.6528 94.0313 48.6561 96.9729C48.6591 99.5359 48.6609 102.099 48.6616 104.662C48.662 106.02 48.6629 107.378 48.665 108.736C48.667 110.012 48.6676 111.289 48.6672 112.565C48.6673 113.035 48.6679 113.505 48.669 113.975C48.6704 114.614 48.6701 115.253 48.6693 115.892C48.6695 116.25 48.6698 116.608 48.6701 116.977C48.634 117.773 48.634 117.773 48.3411 118.066C47.7666 118.051 47.7666 118.051 47.0593 117.975C46.8274 117.952 46.5956 117.928 46.3567 117.905C45.7043 117.773 45.7043 117.773 44.8254 117.187C44.714 116.397 44.714 116.397 44.7119 115.371C44.7103 115.183 44.7087 114.995 44.7071 114.801C44.7029 114.167 44.705 113.533 44.7071 112.899C44.7054 112.446 44.7034 111.993 44.701 111.54C44.6957 110.306 44.6961 109.072 44.6977 107.839C44.6986 106.809 44.6969 105.78 44.6951 104.75C44.691 102.321 44.6914 99.8918 44.6948 97.4628C44.6981 94.9569 44.694 92.4511 44.6861 89.9451C44.6797 87.7944 44.6777 85.6437 44.6794 83.493C44.6804 82.2082 44.6797 80.9235 44.6747 79.6387C44.6701 78.4296 44.6713 77.2206 44.6768 76.0115C44.6779 75.5682 44.677 75.1248 44.6739 74.6815C44.67 74.0751 44.6734 73.4693 44.6786 72.863C44.6787 72.524 44.6787 72.185 44.6788 71.8358C44.883 70.5299 45.4658 69.558 46.51 68.7375C47.1692 68.5544 47.1692 68.5544 49.5129 68.5544Z" fill="#FAFCFC"/>
<path d="M53.9108 41.6013C54.9466 41.7583 54.9466 41.7583 55.3756 42.1873C55.4046 42.7761 55.4127 43.366 55.4128 43.9556C55.4137 44.3401 55.4145 44.7247 55.4154 45.1208C55.4148 45.551 55.4142 45.9811 55.4135 46.4113C55.4139 46.8611 55.4145 47.311 55.4151 47.7608C55.4164 48.9859 55.4159 50.211 55.415 51.4361C55.4143 52.7153 55.4149 53.9946 55.4154 55.2738C55.4159 57.4225 55.4152 59.5711 55.4138 61.7197C55.4122 64.2075 55.4128 66.6953 55.4144 69.1831C55.4157 71.3151 55.4159 73.447 55.4151 75.579C55.4147 76.8542 55.4146 78.1292 55.4156 79.4042C55.4164 80.6028 55.4158 81.8013 55.4141 82.9999C55.4138 83.4408 55.4139 83.882 55.4145 84.3232C55.4153 84.9226 55.4141 85.5223 55.4128 86.122C55.4127 86.4583 55.4126 86.7947 55.4125 87.1413C55.3756 87.8904 55.3756 87.8904 55.0827 88.1833C54.5945 88.1954 54.1059 88.1959 53.6178 88.1833C53.2121 87.3718 53.287 86.7153 53.2857 85.8071C53.2844 85.4251 53.2832 85.0427 53.2819 84.6493C53.282 84.2233 53.2821 83.7976 53.2823 83.3716C53.2814 82.9251 53.2804 82.4787 53.2793 82.0322C53.2767 80.8172 53.276 79.6026 53.2759 78.3876C53.2756 77.3749 53.2745 76.3621 53.2735 75.3493C53.2711 72.961 53.2704 70.5725 53.2706 68.1841C53.2707 65.7168 53.2677 63.2495 53.263 60.7822C53.2592 58.6666 53.2576 56.551 53.2578 54.4354C53.2579 53.1706 53.257 51.9058 53.254 50.6411C53.2511 49.4522 53.2511 48.2634 53.2532 47.0745C53.2535 46.6373 53.2528 46.2001 53.2511 45.7629C53.2488 45.1678 53.2505 44.5728 53.2524 43.9777C53.2523 43.6442 53.2521 43.3106 53.2519 42.9669C53.3249 42.1873 53.3249 42.1873 53.9108 41.6013Z" fill="#AAD4E0"/>
<path d="M87.0143 33.1053C88.584 33.6679 89.4924 34.5457 90.237 36.0349C90.3953 37.4779 90.3965 38.6334 89.7609 39.9534C89.0651 41.4549 88.0488 41.7884 86.5944 41.9962C85.641 42.0288 84.1669 41.5494 83.4987 41.3084C82.8305 41.0674 82.9682 41.0647 82.2536 40.4295C81.2935 39.3322 81.3485 38.1596 81.3667 36.7685C81.5305 35.2896 82.1335 34.4923 83.2057 33.5447C84.4636 32.9277 85.6386 32.9027 87.0143 33.1053Z" fill="#04394D"/>
<path d="M90.7578 49.3474C90.974 49.348 91.1903 49.3487 91.413 49.3494C91.8683 49.3523 92.3236 49.3586 92.7789 49.3683C93.4746 49.3828 94.2264 49.3667 94.9223 49.3683C95.3657 49.3724 95.8458 49.3343 96.2406 49.3683C96.3443 49.3691 96.4292 49.3675 96.5336 49.3683C96.638 49.3691 96.7198 49.3675 96.8266 49.3683C97.8883 49.3939 98.7251 49.4784 99.6098 50.0969C100.07 50.9072 100.207 51.3998 100.141 52.3308C99.8782 53.0984 99.6725 53.425 99.0238 53.9055C98.2225 54.1761 97.5355 54.3101 96.6801 54.3362C95.8246 54.3623 94.8803 54.3315 94.0434 54.3362C93.6208 54.3396 93.1931 54.3694 92.725 54.3362C92.1123 54.3487 91.4713 54.3202 90.8585 54.3233C90.4931 54.3275 89.7323 54.3188 89.3559 54.3233C88.184 54.052 88.1159 53.8617 87.3051 53.0266C86.9755 52.0196 86.9755 52.0195 87.0121 50.9758C88.099 49.5306 89.0276 49.2994 90.7578 49.3474Z" fill="#09394A"/>
<path d="M94.6289 26.3667C99.8531 26.1851 99.8531 26.1851 101.77 27.8498C102.691 28.948 102.577 29.9311 102.568 31.3036C102.567 31.5304 102.567 31.7572 102.566 31.9908C102.565 32.7162 102.561 33.4416 102.557 34.167C102.556 34.6583 102.555 35.1496 102.553 35.641C102.55 36.8464 102.545 38.0518 102.539 39.2573C102.152 39.1606 101.766 39.0639 101.367 38.9643C101.345 38.7555 101.323 38.5466 101.301 38.3315C101.069 36.6408 100.794 35.3259 99.5888 34.0731C98.5331 33.3593 97.341 33.2257 96.0938 33.105C95.9038 32.3117 95.7147 31.5182 95.5261 30.7246C95.4727 30.5018 95.4192 30.2789 95.3642 30.0494C95.0742 28.8263 94.8177 27.6104 94.6289 26.3667Z" fill="#90BAC8"/>
<path d="M39.4023 30.114L39.4123 30.9582C39.4088 31.9111 39.4071 32.8637 39.4128 33.8166C39.4174 34.4964 39.42 35.1762 39.4207 35.856C39.4203 37.2771 39.4215 38.6981 39.4281 40.1191C39.4381 41.9636 39.4461 43.8079 39.4461 45.6524C39.4457 47.0946 39.4468 48.5368 39.4503 49.979C39.4524 50.6669 39.4544 51.3548 39.4562 52.0426C39.4569 53.0302 39.458 54.0176 39.4636 55.0052L39.4695 55.911C39.4688 56.6965 39.4741 57.4796 39.4991 58.2644C39.614 59.5509 40.0525 60.3946 41.0195 61.2299C40.5085 59.7568 40.3608 58.4537 40.3421 56.8974L40.3402 56.0147C40.3308 55.026 40.3223 54.0372 40.3174 53.0481C40.3139 52.3427 40.3095 51.6369 40.3041 50.9314C40.2886 49.0812 40.275 47.2311 40.2642 45.3809C40.253 43.4639 40.2395 41.547 40.2248 39.6301C40.2086 37.5232 40.2316 35.8742 40.2547 34.2156C40.2769 32.6245 40.2992 31.0246 40.2871 29.0033C40.7441 27.5062 41.0371 26.7738 41.166 26.806C41.8496 25.5365 42.1914 24.9017 42.1914 24.9017C43.1387 24.0541 43.7735 23.5658 44.0957 23.4369C45.2676 22.8509 47.2447 21.9041 48.6279 21.8937L49.2786 21.8976C50.0231 21.8947 50.7676 21.8927 51.5122 21.8943C52.057 21.8956 52.6018 21.8958 53.1466 21.895C54.6324 21.8917 56.1183 21.8905 57.6041 21.8922C59.1848 21.8941 60.7654 21.894 62.3461 21.8931C64.9942 21.8915 67.6423 21.8919 70.2903 21.8946C73.3721 21.8978 76.4538 21.8988 79.5355 21.8956C82.2024 21.8929 84.8693 21.8915 87.5362 21.8925C87.756 21.8926 87.9757 21.8928 88.1954 21.8929C89.5642 21.8938 90.9329 21.8946 92.3017 21.8933C93.8181 21.8915 95.3342 21.8904 96.8503 21.8931C97.4101 21.8944 97.97 21.8954 98.5299 21.8962C99.3074 21.8944 100.085 21.8925 100.862 21.8949L101.571 21.8976C103.268 21.8873 104.714 22.0947 106.352 22.558L109.867 24.6088C109.506 24.1427 109.262 23.8497 109.135 23.7298C106.583 21.2725 106.326 21.1992 99.7571 21.2385C99.2019 21.2421 98.6465 21.2434 98.0913 21.2428C96.5743 21.2386 95.0576 21.2386 93.5406 21.2443C91.9287 21.2505 90.3168 21.2522 88.7046 21.252C86.004 21.2516 83.3031 21.2548 80.6022 21.2624C77.4593 21.2717 74.3163 21.2779 71.1733 21.2775C67.7983 21.2771 64.4232 21.2795 61.048 21.2849C60.0811 21.2864 59.1142 21.2877 58.1473 21.2881C56.6007 21.2885 55.0541 21.2898 53.5075 21.295C52.9376 21.2972 52.3677 21.2992 51.7978 21.301C51.0044 21.3005 50.2111 21.3 49.4177 21.3037L48.6979 21.3077C45.9169 21.2963 44.084 22.0582 41.8984 23.7298C40.1448 25.4835 39.4251 27.6782 39.4023 30.114Z" fill="#212E2E"/>
<path d="M59.4727 68.5544C59.8594 68.5544 60.2461 68.5544 60.6445 68.5544C60.665 71.3024 60.6805 74.0504 60.6901 76.7985C60.6947 78.0746 60.7008 79.3508 60.7108 80.627C60.7204 81.8598 60.7257 83.0926 60.7279 84.3254C60.7296 84.7945 60.7327 85.2636 60.7375 85.7326C60.7896 91.0813 60.7896 91.0813 59.198 92.9521C58.9986 93.1126 58.7992 93.2731 58.5938 93.4385C58.3944 93.6043 58.195 93.7701 57.9895 93.9409C56.8554 94.7297 55.837 94.7389 54.4922 94.6287C53.2168 94.156 52.198 93.578 51.2695 92.5779C51.2695 92.5046 51.342 92.1399 51.416 91.9919C51.6577 92.137 52.0459 92.282 52.2949 92.4314C53.7034 93.035 54.8674 93.1488 56.3038 92.6477C57.4248 92.1273 58.2756 91.6415 58.8867 90.5271C59.2271 89.5059 59.2267 88.6899 59.2398 87.6121C59.2442 87.3033 59.2442 87.3033 59.2486 86.9882C59.2579 86.3082 59.2651 85.6282 59.2724 84.9481C59.2784 84.4764 59.2846 84.0048 59.2908 83.5331C59.307 82.2919 59.3215 81.0508 59.3356 79.8096C59.3503 78.543 59.3666 77.2763 59.3828 76.0097C59.4143 73.5246 59.444 71.0395 59.4727 68.5544Z" fill="#FFB68E"/>
<path d="M59.4727 41.6013C60.6445 42.7732 60.6445 42.7732 60.7855 43.5481C60.7829 43.8421 60.7802 44.1362 60.7776 44.4392C60.7775 44.7734 60.7774 45.1077 60.7773 45.452C60.7713 45.8113 60.7652 46.1705 60.759 46.5406C60.7573 46.9096 60.7557 47.2786 60.7539 47.6588C60.7485 48.6376 60.738 49.6161 60.725 50.5948C60.713 51.5944 60.7077 52.5939 60.7018 53.5936C60.6888 55.5533 60.6692 57.5128 60.6445 59.4724C60.2578 59.4724 59.8711 59.4724 59.4727 59.4724C59.4727 53.575 59.4727 47.6775 59.4727 41.6013Z" fill="#FFB68E"/>
<path d="M85.6934 36.3279C86.4258 36.4011 86.5723 36.4744 87.0117 37.0603C87.0117 37.3533 87.0117 37.5486 87.0117 37.6462C87.0117 37.7744 87.0117 38.0125 86.8652 38.3787C86.5752 38.4753 86.4316 38.6453 86.1328 38.7449C86.1328 38.8416 86.0733 38.8467 86.0138 38.8525C85.9543 38.8584 85.8948 38.865 85.8948 38.9646C85.6047 39.0613 85.5469 39.2576 85.4004 39.697C85.4004 40.5027 85.4004 40.5027 85.6934 40.7224C86.1328 41.0886 86.3782 41.0524 86.7188 41.1619C86.889 41.2166 87.0799 41.2675 87.3047 41.3083C87.5295 41.3492 87.7881 41.3801 88.0371 41.4548C87.3076 42.1844 86.9019 42.0545 85.8948 42.0591C84.6679 42.036 83.8781 41.9005 82.9102 41.0886C82.8135 40.8953 82.4238 40.7019 82.3242 40.5027C83.4961 40.7224 83.3496 40.7224 84.082 40.5027C84.8145 39.99 84.8963 39.5506 84.9609 38.9646C85.0255 38.3786 84.5215 38.2322 84.5215 37.3533C84.8145 36.6208 84.9609 36.4011 85.6934 36.3279Z" fill="#708F98"/>
<path d="M89.5039 54.3452C92.0176 54.3452 94.5312 54.3452 97.1211 54.3452C96.8311 56.0854 96.1016 57.6792 95.8027 59.4722C95.6094 59.4722 95.416 59.4722 95.2168 59.4722C95.3135 57.9253 95.4102 56.3784 95.5098 54.7847C95.0936 54.7915 94.6774 54.7983 94.2486 54.8053C93.7046 54.8108 93.1607 54.8161 92.6167 54.8213C92.2049 54.8287 92.2049 54.8287 91.7847 54.8362C91.391 54.839 91.391 54.839 90.9893 54.8419C90.7469 54.845 90.5045 54.848 90.2548 54.8512C89.6504 54.7847 90.0898 54.9312 89.5039 54.3452Z" fill="#BBAA9C"/>
<path d="M97.9401 33.2187C99.5097 33.7813 100.418 34.6591 101.163 36.1483C101.321 37.5913 101.322 38.7468 100.687 40.0668C99.9909 41.5683 98.9746 41.9018 97.5201 42.1096C96.5668 42.1422 95.0927 41.6628 94.4245 41.4218C93.7563 41.1808 93.894 41.1781 93.1794 40.5429C92.2192 39.4456 92.2742 38.273 92.2925 36.8819C92.4563 35.403 93.0593 34.6057 94.1315 33.6581C95.3894 33.0411 96.5643 33.0161 97.9401 33.2187Z" fill="#04394D"/>
<path d="M96.5332 36.3279C97.2656 36.4011 97.4121 36.4744 97.8516 37.0603C97.8516 37.3533 97.8516 37.5486 97.8516 37.6462C97.8516 37.7744 97.8516 38.0125 97.7051 38.3787C97.415 38.4753 97.2715 38.6453 96.9727 38.7449C96.9727 38.8416 96.9132 38.8467 96.8537 38.8525C96.7941 38.8584 96.7346 38.865 96.7346 38.9646C96.4446 39.0613 96.3867 39.2576 96.2402 39.697C96.2402 40.5027 96.2402 40.5027 96.5332 40.7224C96.9727 41.0886 97.218 41.0524 97.5586 41.1619C97.7289 41.2166 97.9198 41.2675 98.1445 41.3083C98.3693 41.3492 98.6279 41.3801 98.877 41.4548C98.1474 42.1844 97.7418 42.0545 96.7346 42.0591C95.5077 42.036 94.718 41.9005 93.75 41.0886C93.6533 40.8953 93.2637 40.7019 93.1641 40.5027C94.3359 40.7224 94.1895 40.7224 94.9219 40.5027C95.6543 39.99 95.7362 39.5506 95.8008 38.9646C95.8654 38.3786 95.3613 38.2322 95.3613 37.3533C95.6543 36.6208 95.8008 36.4011 96.5332 36.3279Z" fill="#708F98"/>
<path d="M64.7461 123.047H50.3906C49.4198 123.047 48.6328 123.834 48.6328 124.804V128.613C48.6328 129.584 49.4198 130.371 50.3906 130.371H64.7461C65.7169 130.371 66.5039 129.584 66.5039 128.613V124.804C66.5039 123.834 65.7169 123.047 64.7461 123.047Z" fill="#04394A"/>
<path d="M100.488 123.047H86.1328C85.162 123.047 84.375 123.834 84.375 124.804V128.613C84.375 129.584 85.162 130.371 86.1328 130.371H100.488C101.459 130.371 102.246 129.584 102.246 128.613V124.804C102.246 123.834 101.459 123.047 100.488 123.047Z" fill="#04394A"/>
</g>
</g>
<defs>
<clipPath id="clip0_41_939">
<rect width="150" height="150" fill="white"/>
</clipPath>
</defs>
</svg>
