<svg width="80" height="80" viewBox="0 0 80 80" fill="none" xmlns="http://www.w3.org/2000/svg">
<mask id="mask0_39_3131" style="mask-type:luminance" maskUnits="userSpaceOnUse" x="0" y="0" width="80" height="80">
<path d="M0 40C0 62.0914 17.9086 80 40 80C62.0914 80 80 62.0914 80 40C80 17.9086 62.0914 0 40 0C17.9086 0 0 17.9086 0 40Z" fill="white"/>
</mask>
<g mask="url(#mask0_39_3131)">
</g>
<g clip-path="url(#clip0_39_3131)">
<rect x="14" y="14" width="52" height="52" rx="26" fill="#E8F4F8"/>
<path d="M40 14C25.6632 14 14 25.6632 14 40C14 54.3368 25.6632 66 40 66C54.3368 66 66 54.3368 66 40C66 25.6632 54.3368 14 40 14ZM31.3333 59.8553V59.5C31.3333 54.7203 35.2203 50.8333 40 50.8333C44.7797 50.8333 48.6667 54.7203 48.6667 59.5V59.8553C46.0103 61.0188 43.081 61.6667 40 61.6667C36.919 61.6667 33.9897 61.0188 31.3333 59.8553ZM52.8375 57.4438C51.8495 51.2493 46.4697 46.5 40 46.5C33.5303 46.5 28.1527 51.2493 27.1625 57.4438C21.8108 53.494 18.3333 47.1457 18.3333 40C18.3333 28.053 28.053 18.3333 40 18.3333C51.947 18.3333 61.6667 28.053 61.6667 40C61.6667 47.1457 58.1892 53.494 52.8375 57.4438ZM40 24.8333C35.2203 24.8333 31.3333 28.7203 31.3333 33.5C31.3333 38.2797 35.2203 42.1667 40 42.1667C44.7797 42.1667 48.6667 38.2797 48.6667 33.5C48.6667 28.7203 44.7797 24.8333 40 24.8333ZM40 37.8333C37.6102 37.8333 35.6667 35.8898 35.6667 33.5C35.6667 31.1102 37.6102 29.1667 40 29.1667C42.3898 29.1667 44.3333 31.1102 44.3333 33.5C44.3333 35.8898 42.3898 37.8333 40 37.8333Z" fill="#04394A"/>
</g>
<defs>
<clipPath id="clip0_39_3131">
<rect x="14" y="14" width="52" height="52" rx="26" fill="white"/>
</clipPath>
</defs>
</svg>
