<svg width="224" height="286" viewBox="0 0 224 286" fill="none" xmlns="http://www.w3.org/2000/svg">
<path d="M0.0446462 0.158752C0.00496068 0.251343 -0.00826781 64.5947 0.00496068 143.132L0.0446462 285.934L86.0695 285.974L172.094 286L197.546 263.247L223.011 240.481V120.247V0H111.561C22.5199 0 0.0843316 0.0397034 0.0446462 0.158752ZM218.275 113.99C218.302 174.153 218.315 223.376 218.315 223.39C218.315 223.39 218.024 223.072 217.68 222.662C215.206 219.778 210.933 217.344 206.541 216.312C204.597 215.863 201.925 215.836 200.377 216.259C198.459 216.775 196.62 217.939 195.628 219.236C195.191 219.818 193.353 224.554 183.788 249.688C177.558 266.065 172.333 279.769 172.187 280.14L171.936 280.841H88.2655H4.60848V142.735V4.62997H111.429H218.249L218.275 113.99ZM204.98 217.873C206.211 218.072 207.97 218.614 209.531 219.275C213.433 220.916 215.867 223.337 216.092 225.797C216.238 227.411 215.471 229.197 214.333 229.858C213.235 230.506 211.423 230.282 209.386 229.25C208.407 228.76 206.105 227.213 205.086 226.353L204.293 225.691L203.697 226.723C203.367 227.279 202.335 229.091 201.382 230.745C200.443 232.398 199.623 233.747 199.583 233.747C199.398 233.747 197.824 231.79 197.215 230.784C195.271 227.649 195.033 224.077 196.58 221.326C198.049 218.76 201.541 217.318 204.98 217.873ZM218.91 232.636V238.272L215.246 238.205C211.872 238.139 209.716 237.967 209.491 237.742C209.452 237.69 210.589 236.367 212.018 234.806C214.307 232.332 214.703 231.948 215.14 231.869C215.828 231.723 216.397 231.353 216.926 230.678C217.402 230.096 218.778 227.49 218.778 227.173C218.778 227.08 218.804 227.001 218.844 227.001C218.884 227.001 218.91 229.541 218.91 232.636ZM205.589 229.594C206.039 229.991 206.832 230.533 207.335 230.771C208.261 231.208 210.669 232.028 211.039 232.028C211.145 232.028 211.238 232.067 211.238 232.107C211.238 232.173 208.473 236.102 207.639 237.227C207.467 237.451 207.375 237.438 205.814 236.988C203.446 236.314 200.972 235.07 201.078 234.607C201.118 234.422 204.663 228.853 204.729 228.853C204.756 228.853 205.152 229.184 205.589 229.594ZM195.681 232.689C196.739 234.356 198.631 236.234 200.417 237.372C203.181 239.131 208.658 240.124 216.317 240.269L217.891 240.296L196.276 259.371C184.384 269.861 174.648 278.433 174.634 278.407C174.621 278.394 179.079 267.546 184.542 254.305L194.49 230.215L194.9 231.155C195.125 231.671 195.482 232.358 195.681 232.689Z" fill="black"/>
<path d="M11.6472 9.06149C9.51737 9.72292 8.45909 12.0379 9.31894 14.1015C9.62319 14.8159 10.4963 15.6757 11.2371 15.9932C13.6843 17.0515 16.4094 15.2921 16.4226 12.6464C16.4359 10.1462 14.0018 8.3207 11.6472 9.06149Z" fill="black"/>
<path d="M209.546 9.1012C208.58 9.44514 207.932 10.014 207.482 10.887C206.741 12.3422 206.927 13.8502 207.998 15.054C209.334 16.5356 211.53 16.7208 213.091 15.4773C213.832 14.8953 214.414 13.665 214.414 12.6993C214.414 10.0801 211.94 8.25458 209.546 9.1012Z" fill="black"/>
<path d="M12.0571 269.213C10.8798 269.438 9.76858 270.324 9.29235 271.409C8.96164 272.15 8.9881 273.605 9.33204 274.359C9.66275 275.1 10.4168 275.854 11.2105 276.237C11.9645 276.608 13.4064 276.634 14.1737 276.29C15.4965 275.708 16.4225 274.293 16.4225 272.838C16.4357 270.562 14.2795 268.776 12.0571 269.213Z" fill="black"/>
</svg>
