<svg width="25" height="24" viewBox="0 0 25 24" fill="none" xmlns="http://www.w3.org/2000/svg">
<path d="M10.8311 17.21C14.5369 17.21 17.5411 14.2059 17.5411 10.5C17.5411 6.79422 14.5369 3.79004 10.8311 3.79004C7.12525 3.79004 4.12109 6.79422 4.12109 10.5C4.12109 14.2059 7.12525 17.21 10.8311 17.21Z" fill="#EFF7FF"/>
<path d="M10.832 4.5C12.4233 4.5 13.9494 5.13214 15.0747 6.25735C16.1999 7.38257 16.832 8.9087 16.832 10.5C16.832 12.0913 16.1999 13.6174 15.0747 14.7426C13.9494 15.8679 12.4233 16.5 10.832 16.5C9.24073 16.5 7.7146 15.8679 6.58939 14.7426C5.46417 13.6174 4.83203 12.0913 4.83203 10.5C4.83203 8.9087 5.46417 7.38257 6.58939 6.25735C7.7146 5.13214 9.24073 4.5 10.832 4.5ZM10.832 2C8.5785 2.00265 6.41803 2.89904 4.82454 4.49252C3.23105 6.08601 2.33468 8.24647 2.33203 10.5C2.33203 11.6162 2.55188 12.7215 2.97905 13.7528C3.40621 14.7841 4.03233 15.7211 4.82162 16.5104C5.61092 17.2997 6.54796 17.9258 7.57922 18.353C8.61049 18.7801 9.7158 19 10.832 19C11.9486 19.0013 13.0545 18.7824 14.0864 18.3557C15.1183 17.929 16.0558 17.3029 16.8454 16.5133C17.6349 15.7238 18.261 14.7862 18.6877 13.7544C19.1144 12.7225 19.3333 11.6166 19.332 10.5C19.332 8.24566 18.4365 6.08365 16.8424 4.48959C15.2484 2.89553 13.0864 2 10.832 2Z" fill="#737A83"/>
<path fill-rule="evenodd" clip-rule="evenodd" d="M16.8182 14.707L22.2182 20.117L20.4488 21.8832L15.0488 16.4732L16.8182 14.707Z" fill="#737A83"/>
</svg>
