<svg xmlns="http://www.w3.org/2000/svg" xmlns:xlink="http://www.w3.org/1999/xlink" fill="none" version="1.1" width="357.791015625" height="96" viewBox="0 0 357.791015625 96"><defs><filter id="master_svg0_30_489" filterUnits="objectBoundingBox" color-interpolation-filters="sRGB" x="-0.017391304347826087" y="-0.0625" width="1.046376811594203" height="1.1666666666666667"><feFlood flood-opacity="0" result="BackgroundImageFix"/><feColorMatrix in="SourceAlpha" type="matrix" values="0 0 0 0 0 0 0 0 0 0 0 0 0 0 0 0 0 0 127 0"/><feOffset dy="2" dx="2"/><feGaussianBlur stdDeviation="2"/><feColorMatrix type="matrix" values="0 0 0 0 0 0 0 0 0 0 0 0 0 0 0 0 0 0 0.10000000149011612 0"/><feBlend mode="normal" in2="BackgroundImageFix" result="effect1_dropShadow"/><feBlend mode="normal" in="SourceGraphic" in2="effect1_dropShadow" result="shape"/></filter></defs><g><rect x="0.927734375" y="0" width="344.640625" height="96" rx="0" fill="#000000" fill-opacity="0" style="mix-blend-mode:passthrough"/><g filter="url(#master_svg0_30_489)"><path d="M24.927734375,87.352Q17.631734375,87.352,12.975734375,83.896Q8.319734375,80.44,6.159734375,74.968Q3.999734375,69.496,3.999734375,63.6595Q3.999734375,56.101,6.303734375,48.4465Q8.607734375,40.792,12.675734375,33.886Q16.743734375000003,26.98,21.939734375,21.598Q27.135734375,16.216,33.039734375,13.096Q38.943734375,9.976,44.807234375,9.976Q49.023734375,9.976,51.903734375,11.9575Q54.783734375,13.9375,54.783734375,18.712Q54.783734375,21.562,53.787734375,25.15Q52.793234375,28.7365,51.099734375,32.029Q49.407734375,35.32,47.280734375,37.432Q45.153734375,39.544,42.975734375,39.544Q41.993234375,39.544,40.947734375,38.872Q39.903734375,38.2,39.039734375,36.568Q40.479734375,34.936,42.279734375,32.5795Q44.081234375,30.2215,45.735734375,27.5875Q47.391734375,24.952,48.447734375,22.417Q49.503734375,19.8805,49.503734375,17.944Q49.503734375,16.216,48.543734375,15.208Q47.583734375,14.2,45.183734375,14.2Q40.959734375,14.2,36.495734375,17.368Q32.031734375,20.536,27.908234375,25.873Q23.786234375,31.2085,20.468234375,37.777Q17.151734375,44.344,15.231734375,51.304Q13.311734375,58.264,13.311734375,64.504Q13.311734375,69.106,14.703734375,73.285Q16.095734375,77.464,19.185734375,80.104Q22.277234375,82.744,27.183734375,82.744Q32.384234375,82.744,37.535234375,79.864Q42.687734375,76.984,46.959734375,72.28Q51.231734375,67.576,53.823734375,62.2L56.319734375,63.832Q52.959734375,70.264,48.255734375,75.592Q43.551734375,80.92,37.649234375,84.136Q31.746734375,87.352,24.927734375,87.352ZM57.855734375,82.072Q53.535734375,82.072,51.951734375,79.24Q50.367734375,76.408,50.367734375,73.048Q50.367734375,69.976,51.327734375,66.76Q52.287734375,63.544,53.967734375,60.76Q55.647734375,57.976,57.711734375,56.296Q59.775734375,54.616,61.887734375,54.616Q62.559734375,54.616,63.471734375,54.856Q64.383734375,55.096,64.767734375,55.576Q63.615734375,57.016,62.415734375,59.128Q61.215734375,61.24,60.207734375,63.592Q59.199734375,65.944,58.623734375,68.344Q58.047734375,70.744,58.047734375,72.76Q58.047734375,74.68,58.767734375,75.928Q59.487734375,77.176,61.311734375,77.176Q63.135734375,77.176,65.679734375,75.112Q68.223734375,73.048,70.527734375,70.36Q67.455734375,67.576,66.111734375,64.264Q64.767734375,60.952,64.767734375,56.248Q64.767734375,54.232,65.775734375,51.64Q66.783734375,49.048,69.039734375,47.128Q71.295734375,45.208,75.135734375,45.208Q79.263734375,45.208,80.943734375,47.512Q82.623734375,49.816,82.623734375,52.984Q82.623734375,56.536,80.751734375,60.952Q78.879734375,65.368,76.287734375,69.304Q77.439734375,69.88,78.975734375,69.88Q80.415734375,69.88,82.431734375,69.208Q84.447734375,68.536,86.367734375,66.952Q88.287734375,65.368,89.439734375,62.68L91.167734375,63.928Q89.055734375,68.824,85.551734375,71.08Q82.047734375,73.336,78.687734375,73.336Q77.439734375,73.336,76.191734375,73.096Q74.943734375,72.856,73.887734375,72.472Q70.623734375,76.312,66.399734375,79.192Q62.175734375,82.072,57.855734375,82.072ZM73.023734375,67.288Q75.327734375,63.928,76.959734375,60.088Q78.591734375,56.248,78.591734375,52.984Q78.591734375,50.776,77.919734375,49.768Q77.247734375,48.76,75.903734375,48.76Q74.079734375,48.76,72.159734375,51.352Q70.239734375,53.944,70.239734375,57.88Q70.239734375,59.896,70.959734375,62.776Q71.679734375,65.656,73.023734375,67.288ZM93.567734375,82.072Q89.247734375,82.072,87.663734375,79.24Q86.079734375,76.408,86.079734375,73.048Q86.079734375,69.976,87.039734375,66.76Q87.999734375,63.544,89.679734375,60.76Q91.359734375,57.976,93.423734375,56.296Q95.487734375,54.616,97.599734375,54.616Q98.271734375,54.616,99.183734375,54.856Q100.095734375,55.096,100.479734375,55.576Q99.327734375,57.016,98.127734375,59.128Q96.927734375,61.24,95.919734375,63.592Q94.911734375,65.944,94.335734375,68.344Q93.759734375,70.744,93.759734375,72.76Q93.759734375,74.68,94.479734375,75.928Q95.199734375,77.176,97.023734375,77.176Q98.847734375,77.176,101.391734375,75.112Q103.935734375,73.048,106.239734375,70.36Q103.167734375,67.576,101.823734375,64.264Q100.479734375,60.952,100.479734375,56.248Q100.479734375,54.232,101.487734375,51.64Q102.495734375,49.048,104.751734375,47.128Q107.007734375,45.208,110.847734375,45.208Q114.975734375,45.208,116.655734375,47.512Q118.335734375,49.816,118.335734375,52.984Q118.335734375,56.536,116.463734375,60.952Q114.591734375,65.368,111.999734375,69.304Q113.151734375,69.88,114.687734375,69.88Q116.127734375,69.88,118.143734375,69.208Q120.159734375,68.536,122.079734375,66.952Q123.999734375,65.368,125.151734375,62.68L126.879734375,63.928Q124.767734375,68.824,121.263734375,71.08Q117.759734375,73.336,114.399734375,73.336Q113.151734375,73.336,111.903734375,73.096Q110.655734375,72.856,109.599734375,72.472Q106.335734375,76.312,102.111734375,79.192Q97.887734375,82.072,93.567734375,82.072ZM108.735734375,67.288Q111.039734375,63.928,112.671734375,60.088Q114.303734375,56.248,114.303734375,52.984Q114.303734375,50.776,113.631734375,49.768Q112.959734375,48.76,111.615734375,48.76Q109.791734375,48.76,107.871734375,51.352Q105.951734375,53.944,105.951734375,57.88Q105.951734375,59.896,106.671734375,62.776Q107.391734375,65.656,108.735734375,67.288ZM153.375734375,82.648Q150.399734375,82.648,148.191734375,80.728Q145.983734375,78.808,144.639734375,75.928Q143.295734375,73.048,142.623734375,70.024Q141.951734375,67,141.951734375,64.792Q143.295734375,64.504,145.311734375,63.928Q147.327734375,63.352,149.439734375,62.344Q151.551734375,61.336,152.943734375,59.848Q154.335734375,58.36,154.335734375,56.248Q154.335734375,54.52,153.231734375,53.464Q152.127734375,52.408,150.111734375,52.408Q147.423734375,52.408,145.023734375,54.184Q142.623734375,55.96,140.559734375,58.84Q138.495734375,61.72,136.815734375,65.08Q135.135734375,68.44,133.839734375,71.608Q132.543734375,74.776,131.679734375,77.08Q130.623734375,79.96,129.663734375,80.968Q128.703734375,81.976,126.879734375,81.976Q126.207734375,81.976,125.295734375,81.592Q124.383734375,81.208,123.759734375,79.672Q123.135734375,78.136,123.135734375,74.776Q123.135734375,68.92,124.767734375,61.912Q126.399734375,54.904,129.135734375,47.656Q131.871734375,40.408,135.135734375,33.784Q138.399734375,27.16,141.759734375,21.88Q145.119734375,16.6,148.047734375,13.528Q150.975734375,10.456,152.895734375,10.456Q154.527734375,10.456,155.631734375,12.424Q156.735734375,14.392,156.735734375,17.464Q156.735734375,20.728,155.295734375,24.712Q153.855734375,28.696,151.215734375,32.776Q148.575734375,36.856,144.927734375,40.504Q141.279734375,44.152,136.863734375,46.744Q134.175734375,52.984,132.735734375,59.08Q131.295734375,65.176,130.911734375,69.88Q132.639734375,65.944,134.847734375,61.816Q137.055734375,57.688,139.743734375,54.088Q142.431734375,50.488,145.551734375,48.28Q148.671734375,46.072,152.223734375,46.072Q156.063734375,46.072,158.943734375,48.76Q161.823734375,51.448,161.823734375,55.48Q161.823734375,58.36,160.287734375,60.472Q158.751734375,62.584,156.495734375,63.976Q154.239734375,65.368,151.935734375,66.04Q149.631734375,66.712,147.999734375,66.808Q148.287734375,68.056,148.815734375,69.976Q149.343734375,71.896,150.207734375,73.72Q151.071734375,75.544,152.415734375,76.792Q153.759734375,78.04,155.583734375,78.04Q157.983734375,78.04,160.527734375,75.832Q163.071734375,73.624,165.519734375,69.976Q167.967734375,66.328,169.887734375,61.912L171.231734375,63.544Q169.599734375,68.344,166.767734375,72.76Q163.935734375,77.176,160.479734375,79.912Q157.023734375,82.648,153.375734375,82.648ZM139.647734375,40.216Q142.239734375,37.912,145.119734375,34.504Q147.999734375,31.096,150.063734375,27.208Q152.127734375,23.32,152.223734375,19.768Q152.223734375,19.672,152.223734375,19.624Q152.223734375,19.576,152.223734375,19.48Q151.263734375,19.864,149.199734375,22.792Q147.135734375,25.72,144.639734375,30.232Q142.143734375,34.744,139.647734375,40.216ZM166.815734375,87.352Q167.295734375,85.912,169.647734375,80.776Q171.999734375,75.64,175.983734375,67.048Q179.967734375,58.456,185.439734375,46.648Q190.911734375,34.84,197.631734375,20.056Q198.015734375,19.288,198.255734375,18.424Q198.495734375,17.56,198.495734375,16.888Q198.495734375,15.928,197.919734375,15.352Q197.343734375,14.776,195.711734375,14.776Q191.679734375,14.776,189.135734375,17.224Q186.591734375,19.672,185.391734375,23.224Q184.191734375,26.776,184.191734375,30.232Q184.191734375,31.096,184.287734375,32.248Q184.383734375,33.4,184.575734375,34.84Q182.271734375,34.84,180.783734375,33.448Q179.295734375,32.056,178.527734375,29.992Q177.759734375,27.928,177.759734375,26.104Q177.759734375,23.032,179.535734375,20.152Q181.311734375,17.272,184.191734375,14.92Q187.071734375,12.568,190.575734375,11.224Q194.079734375,9.88,197.535734375,9.88Q201.087734375,9.88,203.583734375,11.848Q206.079734375,13.816,207.423734375,18.952Q208.767734375,24.088,208.767734375,33.688Q208.767734375,39.928,208.335734375,46.312Q207.903734375,52.696,207.423734375,58.264Q206.943734375,63.832,206.943734375,67.768Q208.863734375,62.104,211.695734375,55.72Q214.527734375,49.336,217.791734375,43.048Q221.055734375,36.76,224.223734375,31.192Q227.391734375,25.624,229.935734375,21.448Q232.479734375,17.272,233.823734375,15.256Q235.167734375,13.144,236.223734375,12.088Q237.279734375,11.032,239.103734375,11.032Q240.447734375,11.032,243.327734375,12.088Q242.463734375,13.912,241.311734375,17.896Q240.159734375,21.88,238.815734375,27.16Q237.375734375,32.92,235.935734375,39.784Q234.495734375,46.648,233.343734375,53.656Q232.191734375,60.664,231.471734375,66.952Q230.751734375,73.24,230.751734375,78.04Q230.751734375,80.536,230.991734375,81.976Q231.231734375,83.416,231.663734375,84.52Q232.095734375,85.624,232.671734375,87.352Q228.543734375,87.352,226.383734375,86.104Q224.223734375,84.856,223.503734375,82.12Q222.783734375,79.384,222.783734375,74.872Q222.783734375,64.216,225.231734375,52.456Q227.679734375,40.696,230.943734375,28.216Q228.255734375,32.056,225.375734375,37.336Q222.495734375,42.616,219.711734375,48.472Q216.927734375,54.328,214.431734375,60.04Q211.935734375,65.752,210.015734375,70.6Q208.095734375,75.448,207.039734375,78.712Q206.175734375,79,205.839734375,79.096Q205.503734375,79.192,205.023734375,79.192Q201.663734375,79.192,200.751734375,75.112Q199.839734375,71.032,199.839734375,63.928Q199.839734375,60.184,199.935734375,55.912Q200.031734375,51.64,200.223734375,47.176Q200.415734375,42.712,200.511734375,38.296Q200.607734375,33.88,200.607734375,29.848Q200.607734375,28.408,200.559734375,26.968Q200.511734375,25.528,200.511734375,24.184Q193.215734375,41.176,188.175734375,53.224Q183.135734375,65.272,179.583734375,72.808Q176.031734375,80.344,173.055734375,83.848Q170.079734375,87.352,166.815734375,87.352ZM247.935734375,83.512Q244.767734375,83.512,242.415734375,81.4Q240.063734375,79.288,240.063734375,75.064Q240.063734375,71.704,241.599734375,67.768Q243.135734375,63.832,245.823734375,59.992Q248.511734375,56.152,251.967734375,53.032Q255.423734375,49.912,259.359734375,47.992Q263.295734375,46.072,267.231734375,46.072Q271.359734375,46.072,274.239734375,48.184Q277.119734375,50.296,277.119734375,53.752Q277.119734375,56.344,275.295734375,57.496Q273.471734375,58.648,270.975734375,58.168Q271.167734375,57.304,271.311734375,56.44Q271.455734375,55.576,271.455734375,54.616Q271.455734375,52.696,270.687734375,51.16Q269.919734375,49.624,267.423734375,49.624Q264.735734375,49.624,261.951734375,51.448Q259.167734375,53.272,256.623734375,56.2Q254.079734375,59.128,252.063734375,62.632Q250.047734375,66.136,248.895734375,69.496Q247.743734375,72.856,247.743734375,75.544Q247.743734375,78.616,249.951734375,78.616Q252.159734375,78.616,254.847734375,76.456Q257.535734375,74.296,260.271734375,71.032Q263.007734375,67.768,265.503734375,64.36Q267.999734375,60.952,269.823734375,58.552Q270.111734375,58.072,270.591734375,58.072Q270.975734375,58.168,272.079734375,58.504Q273.183734375,58.84,274.143734375,59.512Q275.103734375,60.184,275.103734375,61.24Q275.103734375,62.2,274.287734375,63.688Q273.471734375,65.176,272.367734375,66.952Q271.263734375,68.728,270.447734375,70.504Q269.631734375,72.28,269.631734375,73.912Q269.631734375,75.16,270.303734375,76.264Q270.975734375,77.368,272.511734375,77.368Q274.815734375,77.368,278.991734375,73.96Q283.167734375,70.552,287.487734375,62.392L289.311734375,64.216Q287.007734375,69.4,283.791734375,73.384Q280.575734375,77.368,277.023734375,79.624Q273.471734375,81.88,269.823734375,81.88Q265.887734375,81.88,263.967734375,79.384Q262.047734375,76.888,261.855734375,74.008Q261.855734375,73.816,261.855734375,73.72Q261.855734375,73.624,261.855734375,73.528Q258.015734375,78.136,254.799734375,80.824Q251.583734375,83.512,247.935734375,83.512ZM293.919734375,83.416Q289.695734375,83.416,287.103734375,80.92Q284.511734375,78.424,284.511734375,73.336Q284.511734375,69.4,285.999734375,63.544Q287.487734375,57.688,289.791734375,51.448Q289.119734375,51.256,288.207734375,51.112Q287.295734375,50.968,286.431734375,50.584L286.431734375,47.608Q287.967734375,47.8,288.975734375,47.896Q289.983734375,47.992,291.039734375,48.088Q293.055734375,43,295.407734375,38.248Q297.759734375,33.496,300.111734375,29.752Q302.463734375,26.008,304.575734375,23.848Q306.687734375,21.688,308.319734375,21.688Q309.279734375,21.688,310.143734375,22.408Q311.007734375,23.128,311.007734375,24.472Q311.007734375,26.392,309.039734375,29.944Q307.071734375,33.496,304.191734375,38.248Q301.311734375,43,298.623734375,48.376Q299.391734375,48.376,300.159734375,48.376Q300.927734375,48.376,301.599734375,48.376Q305.823734375,48.376,309.231734375,48.232Q312.639734375,48.088,316.191734375,47.704L316.191734375,50.872Q310.911734375,51.352,306.495734375,51.64Q302.079734375,51.928,298.047734375,52.024Q297.759734375,52.024,297.471734375,52.024Q297.183734375,52.024,296.895734375,52.024Q294.879734375,56.728,293.391734375,61.672Q291.903734375,66.616,291.903734375,71.32Q291.903734375,75.256,293.151734375,76.888Q294.399734375,78.52,297.087734375,78.52Q301.887734375,78.52,306.927734375,74.152Q311.967734375,69.784,315.711734375,62.296L317.055734375,63.256Q314.559734375,68.92,310.863734375,73.528Q307.167734375,78.136,302.847734375,80.776Q298.527734375,83.416,293.919734375,83.416ZM323.967734375,83.224Q317.823734375,83.224,314.511734375,79.912Q311.199734375,76.6,311.199734375,71.608Q311.199734375,67.384,313.359734375,62.632Q315.519734375,57.88,319.167734375,53.704Q322.815734375,49.528,327.231734375,46.936Q331.647734375,44.344,336.063734375,44.344Q338.559734375,44.344,340.815734375,45.64Q343.071734375,46.936,343.071734375,50.776Q343.071734375,54.424,340.959734375,57.592Q338.847734375,60.76,335.295734375,63.256Q331.743734375,65.752,327.471734375,67.336Q323.199734375,68.92,318.879734375,69.4Q318.783734375,69.784,318.735734375,70.216Q318.687734375,70.648,318.687734375,71.608Q318.687734375,72.088,318.831734375,73.288Q318.975734375,74.488,319.647734375,75.832Q320.319734375,77.176,321.855734375,78.136Q323.391734375,79.096,326.079734375,79.096Q330.111734375,79.096,334.191734375,76.84Q338.271734375,74.584,341.871734375,70.84Q345.471734375,67.096,347.871734375,62.488L349.791734375,64.024Q347.199734375,69.784,343.119734375,74.104Q339.039734375,78.424,334.095734375,80.824Q329.151734375,83.224,323.967734375,83.224ZM319.935734375,65.848Q322.431734375,65.56,325.503734375,64.12Q328.575734375,62.68,331.407734375,60.472Q334.239734375,58.264,336.063734375,55.624Q337.887734375,52.984,337.887734375,50.296Q337.887734375,49.24,337.503734375,48.856Q337.119734375,48.472,336.255734375,48.472Q334.047734375,48.472,331.647734375,50.056Q329.247734375,51.64,326.943734375,54.184Q324.639734375,56.728,322.815734375,59.8Q320.991734375,62.872,319.935734375,65.848Z" fill="#FFD700" fill-opacity="1" style="mix-blend-mode:passthrough"/></g></g></svg>