<svg width="449" height="130" viewBox="0 0 449 130" fill="none" xmlns="http://www.w3.org/2000/svg">
<g filter="url(#filter0_d_39_3207)">
<path d="M20.8841 114.259C16.3774 114.259 12.6724 112.851 9.76906 110.034C6.86573 107.218 5.41406 102.906 5.41406 97.0993C5.41406 92.8526 6.2374 88.6926 7.88406 84.6193C9.53073 80.546 11.7407 76.8843 14.5141 73.6343C17.2874 70.3843 20.3857 67.806 23.8091 65.8993C27.2324 63.9926 30.7207 63.0393 34.2741 63.0393C37.9141 63.0393 40.5357 63.9493 42.1391 65.7693C43.7424 67.5893 44.5441 69.7126 44.5441 72.1393C44.5441 74.566 43.9591 76.9276 42.7891 79.2243C41.6191 81.521 40.0374 82.6693 38.0441 82.6693C36.3974 82.6693 35.0541 81.846 34.0141 80.1993C34.8807 79.5926 35.7907 78.466 36.7441 76.8193C37.6974 75.1726 38.1741 73.0493 38.1741 70.4493C38.1741 69.756 38.0007 69.2143 37.6541 68.8243C37.3074 68.4343 36.6574 68.2393 35.7041 68.2393C33.5374 68.2393 31.2624 69.2143 28.8791 71.1643C26.4957 73.1143 24.2857 75.6276 22.2491 78.7043C20.2124 81.781 18.5657 85.031 17.3091 88.4543C16.0524 91.8776 15.4241 95.0193 15.4241 97.8793C15.4241 100.306 16.0524 102.538 17.3091 104.574C18.5657 106.611 21.0141 107.629 24.6541 107.629C27.9474 107.629 31.3707 106.676 34.9241 104.769C38.4774 102.863 41.8141 100.198 44.9341 96.7743C48.0541 93.351 50.5674 89.256 52.4741 84.4893L55.0741 86.8293C52.9941 92.116 50.1124 96.8176 46.4291 100.934C42.7457 105.051 38.6724 108.301 34.2091 110.684C29.7457 113.068 25.3041 114.259 20.8841 114.259ZM58.0641 111.139C54.1641 111.139 51.4991 109.861 50.0691 107.304C48.6391 104.748 47.9241 101.953 47.9241 98.9193C47.9241 96.146 48.3574 93.3076 49.2241 90.4043C50.0907 87.501 51.2824 84.7926 52.7991 82.2793C54.3157 79.766 56.0057 77.751 57.8691 76.2343C59.7324 74.7176 61.6174 73.9593 63.5241 73.9593C64.1307 73.9593 64.8457 74.0676 65.6691 74.2843C66.4924 74.501 67.0774 74.826 67.4241 75.2593C66.3841 76.5593 65.3224 78.1626 64.2391 80.0693C63.1557 81.976 62.1591 83.991 61.2491 86.1143C60.3391 88.2376 59.6241 90.3826 59.1041 92.5493C58.5841 94.716 58.3241 96.7093 58.3241 98.5293C58.3241 100.263 58.6491 101.693 59.2991 102.819C59.9491 103.946 61.0974 104.509 62.7441 104.509C64.3907 104.509 66.3624 103.578 68.6591 101.714C70.9557 99.851 73.1441 97.706 75.2241 95.2793C72.4507 92.766 70.4574 90.0143 69.2441 87.0243C68.0307 84.0343 67.4241 80.416 67.4241 76.1693C67.4241 74.3493 67.8791 72.2693 68.7891 69.9293C69.6991 67.5893 71.1724 65.5526 73.2091 63.8193C75.2457 62.086 77.9974 61.2193 81.4641 61.2193C85.1907 61.2193 87.8124 62.2593 89.3291 64.3393C90.8457 66.4193 91.6041 68.8893 91.6041 71.7493C91.6041 74.956 90.7591 78.5526 89.0691 82.5393C87.3791 86.526 85.3641 90.296 83.0241 93.8493C84.0641 94.3693 85.2774 94.6293 86.6641 94.6293C87.9641 94.6293 89.5241 94.326 91.3441 93.7193C93.1641 93.1126 94.9407 92.0943 96.6741 90.6643C98.4074 89.2343 99.7941 87.306 100.834 84.8793L103.174 86.5693C101.267 90.9893 98.7324 94.2176 95.5691 96.2543C92.4057 98.291 89.3074 99.3093 86.2741 99.3093C85.1474 99.3093 84.0207 99.201 82.8941 98.9843C81.7674 98.7676 80.7274 98.486 79.7741 98.1393C76.8274 101.606 73.4474 104.639 69.6341 107.239C65.8207 109.839 61.9641 111.139 58.0641 111.139ZM78.6041 91.1193C80.6841 88.086 82.4607 84.836 83.9341 81.3693C85.4074 77.9026 86.1441 74.696 86.1441 71.7493C86.1441 69.756 85.8407 68.3043 85.2341 67.3943C84.6274 66.4843 83.7174 66.0293 82.5041 66.0293C80.8574 66.0293 79.1674 67.1993 77.4341 69.5393C75.7007 71.8793 74.8341 74.826 74.8341 78.3793C74.8341 80.1993 75.1591 82.4093 75.8091 85.0093C76.4591 87.6093 77.3907 89.646 78.6041 91.1193ZM106.424 111.139C102.524 111.139 99.8591 109.861 98.4291 107.304C96.9991 104.748 96.2841 101.953 96.2841 98.9193C96.2841 96.146 96.7174 93.3076 97.5841 90.4043C98.4507 87.501 99.6424 84.7926 101.159 82.2793C102.676 79.766 104.366 77.751 106.229 76.2343C108.092 74.7176 109.977 73.9593 111.884 73.9593C112.491 73.9593 113.206 74.0676 114.029 74.2843C114.852 74.501 115.437 74.826 115.784 75.2593C114.744 76.5593 113.682 78.1626 112.599 80.0693C111.516 81.976 110.519 83.991 109.609 86.1143C108.699 88.2376 107.984 90.3826 107.464 92.5493C106.944 94.716 106.684 96.7093 106.684 98.5293C106.684 100.263 107.009 101.693 107.659 102.819C108.309 103.946 109.457 104.509 111.104 104.509C112.751 104.509 114.722 103.578 117.019 101.714C119.316 99.851 121.504 97.706 123.584 95.2793C120.811 92.766 118.817 90.0143 117.604 87.0243C116.391 84.0343 115.784 80.416 115.784 76.1693C115.784 74.3493 116.239 72.2693 117.149 69.9293C118.059 67.5893 119.532 65.5526 121.569 63.8193C123.606 62.086 126.357 61.2193 129.824 61.2193C133.551 61.2193 136.172 62.2593 137.689 64.3393C139.206 66.4193 139.964 68.8893 139.964 71.7493C139.964 74.956 139.119 78.5526 137.429 82.5393C135.739 86.526 133.724 90.296 131.384 93.8493C132.424 94.3693 133.637 94.6293 135.024 94.6293C136.324 94.6293 137.884 94.326 139.704 93.7193C141.524 93.1126 143.301 92.0943 145.034 90.6643C146.767 89.2343 148.154 87.306 149.194 84.8793L151.534 86.5693C149.627 90.9893 147.092 94.2176 143.929 96.2543C140.766 98.291 137.667 99.3093 134.634 99.3093C133.507 99.3093 132.381 99.201 131.254 98.9843C130.127 98.7676 129.087 98.486 128.134 98.1393C125.187 101.606 121.807 104.639 117.994 107.239C114.181 109.839 110.324 111.139 106.424 111.139ZM126.964 91.1193C129.044 88.086 130.821 84.836 132.294 81.3693C133.767 77.9026 134.504 74.696 134.504 71.7493C134.504 69.756 134.201 68.3043 133.594 67.3943C132.987 66.4843 132.077 66.0293 130.864 66.0293C129.217 66.0293 127.527 67.1993 125.794 69.5393C124.061 71.8793 123.194 74.826 123.194 78.3793C123.194 80.1993 123.519 82.4093 124.169 85.0093C124.819 87.6093 125.751 89.646 126.964 91.1193ZM187.414 111.919C184.727 111.919 182.387 111.053 180.394 109.319C178.401 107.586 176.797 105.419 175.584 102.819C174.371 100.219 173.461 97.5543 172.854 94.8243C172.247 92.0943 171.944 89.7326 171.944 87.7393C173.157 87.4793 174.674 87.0893 176.494 86.5693C178.314 86.0493 180.177 85.3343 182.084 84.4243C183.991 83.5143 185.572 82.3876 186.829 81.0443C188.086 79.701 188.714 78.076 188.714 76.1693C188.714 74.6093 188.216 73.3526 187.219 72.3993C186.222 71.446 184.814 70.9693 182.994 70.9693C180.567 70.9693 178.271 71.771 176.104 73.3743C173.937 74.9776 171.922 77.0793 170.059 79.6793C168.196 82.2793 166.506 85.096 164.989 88.1293C163.472 91.1626 162.129 94.1093 160.959 96.9693C159.789 99.8293 158.814 102.299 158.034 104.379C157.081 106.979 156.171 108.734 155.304 109.644C154.437 110.554 153.181 111.009 151.534 111.009C150.927 111.009 150.212 110.836 149.389 110.489C148.566 110.143 147.872 109.276 147.309 107.889C146.746 106.503 146.464 104.293 146.464 101.259C146.464 95.9726 147.201 90.166 148.674 83.8393C150.147 77.5126 152.119 71.0776 154.589 64.5343C157.059 57.991 159.767 51.7293 162.714 45.7493C165.661 39.7693 168.651 34.396 171.684 29.6293C174.717 24.8626 177.556 21.0926 180.199 18.3193C182.842 15.546 185.031 14.1593 186.764 14.1593C188.237 14.1593 189.472 15.0476 190.469 16.8243C191.466 18.601 191.964 20.876 191.964 23.6493C191.964 26.596 191.314 29.8676 190.014 33.4643C188.714 37.061 186.872 40.701 184.489 44.3843C182.106 48.0676 179.267 51.556 175.974 54.8493C172.681 58.1426 169.041 60.9593 165.054 63.2993C162.627 68.9326 160.764 74.501 159.464 80.0043C158.164 85.5076 157.341 90.3826 156.994 94.6293C158.554 91.076 160.331 87.436 162.324 83.7093C164.317 79.9826 166.527 76.4943 168.954 73.2443C171.381 69.9943 174.002 67.3726 176.819 65.3793C179.636 63.386 182.647 62.3893 185.854 62.3893C189.321 62.3893 192.354 63.6026 194.954 66.0293C197.554 68.456 198.854 71.4893 198.854 75.1293C198.854 77.7293 198.161 79.9826 196.774 81.8893C195.387 83.796 193.676 85.3776 191.639 86.6343C189.602 87.891 187.544 88.8226 185.464 89.4293C183.384 90.036 181.607 90.3826 180.134 90.4693C180.394 91.596 180.762 93.026 181.239 94.7593C181.716 96.4926 182.344 98.1826 183.124 99.8293C183.904 101.476 184.901 102.863 186.114 103.989C187.327 105.116 188.757 105.679 190.404 105.679C192.571 105.679 194.802 104.683 197.099 102.689C199.396 100.696 201.649 98.0526 203.859 94.7593C206.069 91.466 208.041 87.826 209.774 83.8393L211.594 86.0493C210.121 90.3826 208.106 94.5426 205.549 98.5293C202.992 102.516 200.154 105.744 197.034 108.214C193.914 110.684 190.707 111.919 187.414 111.919ZM168.824 54.4593C171.164 52.3793 173.634 49.801 176.234 46.7243C178.834 43.6476 181.066 40.3543 182.929 36.8443C184.792 33.3343 185.767 29.976 185.854 26.7693C185.854 26.6826 185.854 26.6176 185.854 26.5743C185.854 26.531 185.854 26.466 185.854 26.3793C184.987 26.726 183.622 28.221 181.759 30.8643C179.896 33.5076 177.837 36.866 175.584 40.9393C173.331 45.0126 171.077 49.5193 168.824 54.4593ZM274.254 111.009C270.874 111.009 268.361 110.013 266.714 108.019C265.067 106.026 264.244 103.643 264.244 100.869C264.244 98.876 264.547 96.8826 265.154 94.8893C265.761 92.896 266.367 90.9243 266.974 88.9743C267.581 87.0243 267.884 85.2693 267.884 83.7093C267.884 82.236 267.602 81.2176 267.039 80.6543C266.476 80.091 265.761 79.8093 264.894 79.8093C262.901 79.8093 260.582 81.326 257.939 84.3593C255.296 87.3926 252.024 91.8126 248.124 97.6193C246.737 99.6993 245.437 101.888 244.224 104.184C243.011 106.481 241.927 108.409 240.974 109.969C240.194 109.969 239.176 109.839 237.919 109.579C236.662 109.319 235.557 108.951 234.604 108.474C233.651 107.998 233.174 107.369 233.174 106.589C233.174 105.809 233.607 104.293 234.474 102.039C235.341 99.786 236.337 97.1643 237.464 94.1743C238.591 91.1843 239.587 88.2376 240.454 85.3343C241.321 82.431 241.754 79.9826 241.754 77.9893C241.754 76.776 241.537 75.8226 241.104 75.1293C240.671 74.436 239.977 74.0893 239.024 74.0893C237.204 74.0893 235.016 75.1726 232.459 77.3393C229.902 79.506 227.216 82.3443 224.399 85.8543C221.582 89.3643 218.939 93.2643 216.469 97.5543C213.999 101.844 211.984 106.156 210.424 110.489C209.471 110.489 208.301 110.294 206.914 109.904C205.527 109.514 204.314 109.038 203.274 108.474C202.234 107.911 201.714 107.413 201.714 106.979C201.714 106.893 202.017 105.658 202.624 103.274C203.231 100.891 203.967 97.9226 204.834 94.3693C205.701 90.816 206.611 87.176 207.564 83.4493C208.517 79.7226 209.341 76.4726 210.034 73.6993C210.294 72.746 211.247 71.901 212.894 71.1643C214.541 70.4276 215.971 70.0593 217.184 70.0593C218.397 70.0593 219.437 70.4493 220.304 71.2293C221.171 72.0093 221.604 73.0493 221.604 74.3493C221.604 75.216 221.431 76.4726 221.084 78.1193C220.737 79.766 220.304 81.6293 219.784 83.7093C221.604 81.2826 223.532 78.8776 225.569 76.4943C227.606 74.111 229.729 71.966 231.939 70.0593C234.149 68.1526 236.359 66.636 238.569 65.5093C240.779 64.3826 242.967 63.8193 245.134 63.8193C248.341 63.8193 250.507 64.9676 251.634 67.2643C252.761 69.561 253.324 72.0526 253.324 74.7393C253.324 75.866 253.237 76.971 253.064 78.0543C252.891 79.1376 252.652 80.221 252.349 81.3043C252.046 82.3876 251.634 83.666 251.114 85.1393C252.761 82.7126 254.559 80.481 256.509 78.4443C258.459 76.4076 260.561 74.7826 262.814 73.5693C265.067 72.356 267.451 71.7493 269.964 71.7493C273.344 71.7493 275.684 72.7676 276.984 74.8043C278.284 76.841 278.934 79.0726 278.934 81.4993C278.934 83.7526 278.566 86.1143 277.829 88.5843C277.092 91.0543 276.356 93.3943 275.619 95.6043C274.882 97.8143 274.514 99.6993 274.514 101.259C274.514 102.126 274.731 102.928 275.164 103.664C275.597 104.401 276.464 104.769 277.764 104.769C280.104 104.769 282.357 103.686 284.524 101.519C286.691 99.3526 288.706 96.6876 290.569 93.5243C292.432 90.361 294.014 87.3493 295.314 84.4893L297.524 87.2193C296.137 90.7726 294.339 94.391 292.129 98.0743C289.919 101.758 287.341 104.834 284.394 107.304C281.447 109.774 278.067 111.009 274.254 111.009ZM299.344 113.089C296.484 113.089 293.992 112.136 291.869 110.229C289.746 108.323 288.684 105.463 288.684 101.649C288.684 98.616 289.377 95.3226 290.764 91.7693C292.151 88.216 294.057 84.706 296.484 81.2393C298.911 77.7726 301.684 74.631 304.804 71.8143C307.924 68.9976 311.261 66.7226 314.814 64.9893C318.367 63.256 321.921 62.3893 325.474 62.3893C329.201 62.3893 332.364 63.3426 334.964 65.2493C337.564 67.156 338.864 69.6693 338.864 72.7893C338.864 75.1293 338.041 76.8193 336.394 77.8593C334.747 78.8993 332.797 79.2026 330.544 78.7693C330.717 77.9893 330.869 77.2093 330.999 76.4293C331.129 75.6493 331.194 74.826 331.194 73.9593C331.194 72.226 330.847 70.666 330.154 69.2793C329.461 67.8926 327.987 67.1993 325.734 67.1993C323.307 67.1993 320.837 68.0226 318.324 69.6693C315.811 71.316 313.406 73.461 311.109 76.1043C308.812 78.7476 306.754 81.651 304.934 84.8143C303.114 87.9776 301.684 91.076 300.644 94.1093C299.604 97.1426 299.084 99.8726 299.084 102.299C299.084 105.073 300.081 106.459 302.074 106.459C304.067 106.459 306.277 105.484 308.704 103.534C311.131 101.584 313.579 99.136 316.049 96.1893C318.519 93.2426 320.881 90.231 323.134 87.1543C325.387 84.0776 327.337 81.456 328.984 79.2893C329.244 78.856 329.591 78.6393 330.024 78.6393C330.371 78.726 331.042 78.921 332.039 79.2243C333.036 79.5276 333.967 79.9826 334.834 80.5893C335.701 81.196 336.134 81.976 336.134 82.9293C336.134 83.796 335.766 84.901 335.029 86.2443C334.292 87.5876 333.426 89.061 332.429 90.6643C331.432 92.2676 330.566 93.871 329.829 95.4743C329.092 97.0776 328.724 98.616 328.724 100.089C328.724 101.216 329.027 102.278 329.634 103.274C330.241 104.271 331.237 104.769 332.624 104.769C334.704 104.769 337.629 103.231 341.399 100.154C345.169 97.0776 349.004 91.856 352.904 84.4893L355.374 86.9593C353.294 91.6393 350.802 95.7776 347.899 99.3743C344.996 102.971 341.941 105.788 338.734 107.824C335.527 109.861 332.277 110.879 328.984 110.879C325.431 110.879 322.787 109.753 321.054 107.499C319.321 105.246 318.367 102.819 318.194 100.219C318.194 100.046 318.194 99.916 318.194 99.8293C318.194 99.7426 318.194 99.656 318.194 99.5693C314.727 103.729 311.542 107.023 308.639 109.449C305.736 111.876 302.637 113.089 299.344 113.089ZM361.614 112.959C357.801 112.959 354.724 111.833 352.384 109.579C350.044 107.326 348.874 103.903 348.874 99.3093C348.874 95.756 349.546 91.336 350.889 86.0493C352.232 80.7626 353.944 75.3026 356.024 69.6693C355.417 69.496 354.702 69.3443 353.879 69.2143C353.056 69.0843 352.254 68.846 351.474 68.4993V64.4693C352.861 64.6426 354.009 64.7726 354.919 64.8593C355.829 64.946 356.761 65.0326 357.714 65.1193C359.534 60.526 361.506 56.0843 363.629 51.7943C365.752 47.5043 367.876 43.6693 369.999 40.2893C372.122 36.9093 374.137 34.2443 376.044 32.2943C377.951 30.3443 379.641 29.3693 381.114 29.3693C381.981 29.3693 382.804 29.6943 383.584 30.3443C384.364 30.9943 384.754 31.926 384.754 33.1393C384.754 34.8726 383.866 37.3426 382.089 40.5493C380.312 43.756 378.124 47.5043 375.524 51.7943C372.924 56.0843 370.411 60.656 367.984 65.5093C368.677 65.5093 369.371 65.5093 370.064 65.5093C370.757 65.5093 371.407 65.5093 372.014 65.5093C375.827 65.5093 379.272 65.4443 382.349 65.3143C385.426 65.1843 388.567 64.946 391.774 64.5993V68.8893C387.007 69.3226 382.631 69.6693 378.644 69.9293C374.657 70.1893 370.844 70.3626 367.204 70.4493C366.944 70.4493 366.684 70.4493 366.424 70.4493C366.164 70.4493 365.904 70.4493 365.644 70.4493C363.824 74.696 362.242 79.051 360.899 83.5143C359.556 87.9776 358.884 92.3326 358.884 96.5793C358.884 100.133 359.447 102.646 360.574 104.119C361.701 105.593 363.477 106.329 365.904 106.329C370.237 106.329 374.679 104.358 379.229 100.414C383.779 96.471 387.744 91.1193 391.124 84.3593L392.944 85.6593C390.691 90.7726 387.896 95.4093 384.559 99.5693C381.222 103.729 377.604 107.001 373.704 109.384C369.804 111.768 365.774 112.959 361.614 112.959ZM402.304 112.699C396.757 112.699 392.489 111.204 389.499 108.214C386.509 105.224 385.014 101.476 385.014 96.9693C385.014 93.156 385.989 89.1043 387.939 84.8143C389.889 80.5243 392.511 76.4943 395.804 72.7243C399.097 68.9543 402.737 65.8993 406.724 63.5593C410.711 61.2193 414.697 60.0493 418.684 60.0493C420.937 60.0493 423.082 60.6343 425.119 61.8043C427.156 62.9743 428.174 65.2926 428.174 68.7593C428.174 72.0526 427.221 75.1293 425.314 77.9893C423.407 80.8493 420.851 83.406 417.644 85.6593C414.437 87.9126 410.906 89.7543 407.049 91.1843C403.192 92.6143 399.314 93.546 395.414 93.9793C395.327 94.326 395.262 94.6943 395.219 95.0843C395.176 95.4743 395.154 96.1026 395.154 96.9693C395.154 97.4026 395.219 98.161 395.349 99.2443C395.479 100.328 395.847 101.476 396.454 102.689C397.061 103.903 398.057 104.943 399.444 105.809C400.831 106.676 402.737 107.109 405.164 107.109C408.804 107.109 412.466 106.091 416.149 104.054C419.832 102.018 423.299 99.3093 426.549 95.9293C429.799 92.5493 432.507 88.7793 434.674 84.6193L437.274 86.6993C434.934 91.8993 431.922 96.4493 428.239 100.349C424.556 104.249 420.482 107.283 416.019 109.449C411.556 111.616 406.984 112.699 402.304 112.699ZM396.844 89.1693C399.097 88.9093 401.611 88.1293 404.384 86.8293C407.157 85.5293 409.822 83.8826 412.379 81.8893C414.936 79.896 417.037 77.7076 418.684 75.3243C420.331 72.941 421.154 70.536 421.154 68.1093C421.154 67.156 420.981 66.506 420.634 66.1593C420.287 65.8126 419.724 65.6393 418.944 65.6393C416.951 65.6393 414.871 66.3543 412.704 67.7843C410.537 69.2143 408.414 71.0776 406.334 73.3743C404.254 75.671 402.391 78.206 400.744 80.9793C399.097 83.7526 397.797 86.4826 396.844 89.1693Z" fill="#FFD700"/>
</g>
<defs>
<filter id="filter0_d_39_3207" x="2.70573" y="11.451" width="442.693" height="110.933" filterUnits="userSpaceOnUse" color-interpolation-filters="sRGB">
<feFlood flood-opacity="0" result="BackgroundImageFix"/>
<feColorMatrix in="SourceAlpha" type="matrix" values="0 0 0 0 0 0 0 0 0 0 0 0 0 0 0 0 0 0 127 0" result="hardAlpha"/>
<feOffset dx="2.70833" dy="2.70833"/>
<feGaussianBlur stdDeviation="2.70833"/>
<feColorMatrix type="matrix" values="0 0 0 0 0 0 0 0 0 0 0 0 0 0 0 0 0 0 0.1 0"/>
<feBlend mode="normal" in2="BackgroundImageFix" result="effect1_dropShadow_39_3207"/>
<feBlend mode="normal" in="SourceGraphic" in2="effect1_dropShadow_39_3207" result="shape"/>
</filter>
</defs>
</svg>
